%TF.GenerationSoftware,KiCad,Pcbnew,8.0.3+1*%
%TF.CreationDate,2024-07-19T21:35:54+02:00*%
%TF.ProjectId,rom64k,726f6d36-346b-42e6-9b69-6361645f7063,rev?*%
%TF.SameCoordinates,Original*%
%TF.FileFunction,Legend,Top*%
%TF.FilePolarity,Positive*%
%FSLAX46Y46*%
G04 Gerber Fmt 4.6, Leading zero omitted, Abs format (unit mm)*
G04 Created by KiCad (PCBNEW 8.0.3+1) date 2024-07-19 21:35:54*
%MOMM*%
%LPD*%
G01*
G04 APERTURE LIST*
%ADD10C,0.300000*%
%ADD11C,0.150000*%
%ADD12C,0.120000*%
G04 APERTURE END LIST*
D10*
X189908328Y-145624999D02*
X188908328Y-145624999D01*
X189194042Y-145624999D02*
X189051185Y-145553570D01*
X189051185Y-145553570D02*
X188979757Y-145482142D01*
X188979757Y-145482142D02*
X188908328Y-145339284D01*
X188908328Y-145339284D02*
X188908328Y-145196427D01*
X189836900Y-144124999D02*
X189908328Y-144267856D01*
X189908328Y-144267856D02*
X189908328Y-144553571D01*
X189908328Y-144553571D02*
X189836900Y-144696428D01*
X189836900Y-144696428D02*
X189694042Y-144767856D01*
X189694042Y-144767856D02*
X189122614Y-144767856D01*
X189122614Y-144767856D02*
X188979757Y-144696428D01*
X188979757Y-144696428D02*
X188908328Y-144553571D01*
X188908328Y-144553571D02*
X188908328Y-144267856D01*
X188908328Y-144267856D02*
X188979757Y-144124999D01*
X188979757Y-144124999D02*
X189122614Y-144053571D01*
X189122614Y-144053571D02*
X189265471Y-144053571D01*
X189265471Y-144053571D02*
X189408328Y-144767856D01*
X188908328Y-143553571D02*
X189908328Y-143196428D01*
X189908328Y-143196428D02*
X188908328Y-142839285D01*
X188408328Y-141982142D02*
X188408328Y-141839285D01*
X188408328Y-141839285D02*
X188479757Y-141696428D01*
X188479757Y-141696428D02*
X188551185Y-141625000D01*
X188551185Y-141625000D02*
X188694042Y-141553571D01*
X188694042Y-141553571D02*
X188979757Y-141482142D01*
X188979757Y-141482142D02*
X189336900Y-141482142D01*
X189336900Y-141482142D02*
X189622614Y-141553571D01*
X189622614Y-141553571D02*
X189765471Y-141625000D01*
X189765471Y-141625000D02*
X189836900Y-141696428D01*
X189836900Y-141696428D02*
X189908328Y-141839285D01*
X189908328Y-141839285D02*
X189908328Y-141982142D01*
X189908328Y-141982142D02*
X189836900Y-142125000D01*
X189836900Y-142125000D02*
X189765471Y-142196428D01*
X189765471Y-142196428D02*
X189622614Y-142267857D01*
X189622614Y-142267857D02*
X189336900Y-142339285D01*
X189336900Y-142339285D02*
X188979757Y-142339285D01*
X188979757Y-142339285D02*
X188694042Y-142267857D01*
X188694042Y-142267857D02*
X188551185Y-142196428D01*
X188551185Y-142196428D02*
X188479757Y-142125000D01*
X188479757Y-142125000D02*
X188408328Y-141982142D01*
X188551185Y-140910714D02*
X188479757Y-140839286D01*
X188479757Y-140839286D02*
X188408328Y-140696429D01*
X188408328Y-140696429D02*
X188408328Y-140339286D01*
X188408328Y-140339286D02*
X188479757Y-140196429D01*
X188479757Y-140196429D02*
X188551185Y-140125000D01*
X188551185Y-140125000D02*
X188694042Y-140053571D01*
X188694042Y-140053571D02*
X188836900Y-140053571D01*
X188836900Y-140053571D02*
X189051185Y-140125000D01*
X189051185Y-140125000D02*
X189908328Y-140982143D01*
X189908328Y-140982143D02*
X189908328Y-140053571D01*
X114810870Y-144467856D02*
X114810870Y-144753570D01*
X114810870Y-144753570D02*
X114882299Y-144896427D01*
X114882299Y-144896427D02*
X114953727Y-144967856D01*
X114953727Y-144967856D02*
X115168013Y-145110713D01*
X115168013Y-145110713D02*
X115453727Y-145182141D01*
X115453727Y-145182141D02*
X116025156Y-145182141D01*
X116025156Y-145182141D02*
X116168013Y-145110713D01*
X116168013Y-145110713D02*
X116239442Y-145039284D01*
X116239442Y-145039284D02*
X116310870Y-144896427D01*
X116310870Y-144896427D02*
X116310870Y-144610713D01*
X116310870Y-144610713D02*
X116239442Y-144467856D01*
X116239442Y-144467856D02*
X116168013Y-144396427D01*
X116168013Y-144396427D02*
X116025156Y-144324998D01*
X116025156Y-144324998D02*
X115668013Y-144324998D01*
X115668013Y-144324998D02*
X115525156Y-144396427D01*
X115525156Y-144396427D02*
X115453727Y-144467856D01*
X115453727Y-144467856D02*
X115382299Y-144610713D01*
X115382299Y-144610713D02*
X115382299Y-144896427D01*
X115382299Y-144896427D02*
X115453727Y-145039284D01*
X115453727Y-145039284D02*
X115525156Y-145110713D01*
X115525156Y-145110713D02*
X115668013Y-145182141D01*
X115310870Y-143039285D02*
X116310870Y-143039285D01*
X114739442Y-143396427D02*
X115810870Y-143753570D01*
X115810870Y-143753570D02*
X115810870Y-142824999D01*
X116310870Y-142253571D02*
X114810870Y-142253571D01*
X116310870Y-141396428D02*
X115453727Y-142039285D01*
X114810870Y-141396428D02*
X115668013Y-142253571D01*
X115525156Y-140253571D02*
X115596584Y-140039285D01*
X115596584Y-140039285D02*
X115668013Y-139967856D01*
X115668013Y-139967856D02*
X115810870Y-139896428D01*
X115810870Y-139896428D02*
X116025156Y-139896428D01*
X116025156Y-139896428D02*
X116168013Y-139967856D01*
X116168013Y-139967856D02*
X116239442Y-140039285D01*
X116239442Y-140039285D02*
X116310870Y-140182142D01*
X116310870Y-140182142D02*
X116310870Y-140753571D01*
X116310870Y-140753571D02*
X114810870Y-140753571D01*
X114810870Y-140753571D02*
X114810870Y-140253571D01*
X114810870Y-140253571D02*
X114882299Y-140110714D01*
X114882299Y-140110714D02*
X114953727Y-140039285D01*
X114953727Y-140039285D02*
X115096584Y-139967856D01*
X115096584Y-139967856D02*
X115239442Y-139967856D01*
X115239442Y-139967856D02*
X115382299Y-140039285D01*
X115382299Y-140039285D02*
X115453727Y-140110714D01*
X115453727Y-140110714D02*
X115525156Y-140253571D01*
X115525156Y-140253571D02*
X115525156Y-140753571D01*
X116310870Y-137253571D02*
X115596584Y-137753571D01*
X116310870Y-138110714D02*
X114810870Y-138110714D01*
X114810870Y-138110714D02*
X114810870Y-137539285D01*
X114810870Y-137539285D02*
X114882299Y-137396428D01*
X114882299Y-137396428D02*
X114953727Y-137324999D01*
X114953727Y-137324999D02*
X115096584Y-137253571D01*
X115096584Y-137253571D02*
X115310870Y-137253571D01*
X115310870Y-137253571D02*
X115453727Y-137324999D01*
X115453727Y-137324999D02*
X115525156Y-137396428D01*
X115525156Y-137396428D02*
X115596584Y-137539285D01*
X115596584Y-137539285D02*
X115596584Y-138110714D01*
X114810870Y-136324999D02*
X114810870Y-136039285D01*
X114810870Y-136039285D02*
X114882299Y-135896428D01*
X114882299Y-135896428D02*
X115025156Y-135753571D01*
X115025156Y-135753571D02*
X115310870Y-135682142D01*
X115310870Y-135682142D02*
X115810870Y-135682142D01*
X115810870Y-135682142D02*
X116096584Y-135753571D01*
X116096584Y-135753571D02*
X116239442Y-135896428D01*
X116239442Y-135896428D02*
X116310870Y-136039285D01*
X116310870Y-136039285D02*
X116310870Y-136324999D01*
X116310870Y-136324999D02*
X116239442Y-136467857D01*
X116239442Y-136467857D02*
X116096584Y-136610714D01*
X116096584Y-136610714D02*
X115810870Y-136682142D01*
X115810870Y-136682142D02*
X115310870Y-136682142D01*
X115310870Y-136682142D02*
X115025156Y-136610714D01*
X115025156Y-136610714D02*
X114882299Y-136467857D01*
X114882299Y-136467857D02*
X114810870Y-136324999D01*
X116310870Y-135039285D02*
X114810870Y-135039285D01*
X114810870Y-135039285D02*
X115882299Y-134539285D01*
X115882299Y-134539285D02*
X114810870Y-134039285D01*
X114810870Y-134039285D02*
X116310870Y-134039285D01*
X116239442Y-131539285D02*
X116310870Y-131682142D01*
X116310870Y-131682142D02*
X116310870Y-131967856D01*
X116310870Y-131967856D02*
X116239442Y-132110713D01*
X116239442Y-132110713D02*
X116168013Y-132182142D01*
X116168013Y-132182142D02*
X116025156Y-132253570D01*
X116025156Y-132253570D02*
X115596584Y-132253570D01*
X115596584Y-132253570D02*
X115453727Y-132182142D01*
X115453727Y-132182142D02*
X115382299Y-132110713D01*
X115382299Y-132110713D02*
X115310870Y-131967856D01*
X115310870Y-131967856D02*
X115310870Y-131682142D01*
X115310870Y-131682142D02*
X115382299Y-131539285D01*
X116310870Y-130253571D02*
X115525156Y-130253571D01*
X115525156Y-130253571D02*
X115382299Y-130324999D01*
X115382299Y-130324999D02*
X115310870Y-130467856D01*
X115310870Y-130467856D02*
X115310870Y-130753571D01*
X115310870Y-130753571D02*
X115382299Y-130896428D01*
X116239442Y-130253571D02*
X116310870Y-130396428D01*
X116310870Y-130396428D02*
X116310870Y-130753571D01*
X116310870Y-130753571D02*
X116239442Y-130896428D01*
X116239442Y-130896428D02*
X116096584Y-130967856D01*
X116096584Y-130967856D02*
X115953727Y-130967856D01*
X115953727Y-130967856D02*
X115810870Y-130896428D01*
X115810870Y-130896428D02*
X115739442Y-130753571D01*
X115739442Y-130753571D02*
X115739442Y-130396428D01*
X115739442Y-130396428D02*
X115668013Y-130253571D01*
X116310870Y-129539285D02*
X115310870Y-129539285D01*
X115596584Y-129539285D02*
X115453727Y-129467856D01*
X115453727Y-129467856D02*
X115382299Y-129396428D01*
X115382299Y-129396428D02*
X115310870Y-129253570D01*
X115310870Y-129253570D02*
X115310870Y-129110713D01*
X115310870Y-128824999D02*
X115310870Y-128253571D01*
X114810870Y-128610714D02*
X116096584Y-128610714D01*
X116096584Y-128610714D02*
X116239442Y-128539285D01*
X116239442Y-128539285D02*
X116310870Y-128396428D01*
X116310870Y-128396428D02*
X116310870Y-128253571D01*
X116310870Y-127753571D02*
X115310870Y-127753571D01*
X115596584Y-127753571D02*
X115453727Y-127682142D01*
X115453727Y-127682142D02*
X115382299Y-127610714D01*
X115382299Y-127610714D02*
X115310870Y-127467856D01*
X115310870Y-127467856D02*
X115310870Y-127324999D01*
X116310870Y-126825000D02*
X115310870Y-126825000D01*
X114810870Y-126825000D02*
X114882299Y-126896428D01*
X114882299Y-126896428D02*
X114953727Y-126825000D01*
X114953727Y-126825000D02*
X114882299Y-126753571D01*
X114882299Y-126753571D02*
X114810870Y-126825000D01*
X114810870Y-126825000D02*
X114953727Y-126825000D01*
X116310870Y-125467857D02*
X114810870Y-125467857D01*
X116239442Y-125467857D02*
X116310870Y-125610714D01*
X116310870Y-125610714D02*
X116310870Y-125896428D01*
X116310870Y-125896428D02*
X116239442Y-126039285D01*
X116239442Y-126039285D02*
X116168013Y-126110714D01*
X116168013Y-126110714D02*
X116025156Y-126182142D01*
X116025156Y-126182142D02*
X115596584Y-126182142D01*
X115596584Y-126182142D02*
X115453727Y-126110714D01*
X115453727Y-126110714D02*
X115382299Y-126039285D01*
X115382299Y-126039285D02*
X115310870Y-125896428D01*
X115310870Y-125896428D02*
X115310870Y-125610714D01*
X115310870Y-125610714D02*
X115382299Y-125467857D01*
X115310870Y-124110714D02*
X116525156Y-124110714D01*
X116525156Y-124110714D02*
X116668013Y-124182142D01*
X116668013Y-124182142D02*
X116739442Y-124253571D01*
X116739442Y-124253571D02*
X116810870Y-124396428D01*
X116810870Y-124396428D02*
X116810870Y-124610714D01*
X116810870Y-124610714D02*
X116739442Y-124753571D01*
X116239442Y-124110714D02*
X116310870Y-124253571D01*
X116310870Y-124253571D02*
X116310870Y-124539285D01*
X116310870Y-124539285D02*
X116239442Y-124682142D01*
X116239442Y-124682142D02*
X116168013Y-124753571D01*
X116168013Y-124753571D02*
X116025156Y-124824999D01*
X116025156Y-124824999D02*
X115596584Y-124824999D01*
X115596584Y-124824999D02*
X115453727Y-124753571D01*
X115453727Y-124753571D02*
X115382299Y-124682142D01*
X115382299Y-124682142D02*
X115310870Y-124539285D01*
X115310870Y-124539285D02*
X115310870Y-124253571D01*
X115310870Y-124253571D02*
X115382299Y-124110714D01*
X116239442Y-122824999D02*
X116310870Y-122967856D01*
X116310870Y-122967856D02*
X116310870Y-123253571D01*
X116310870Y-123253571D02*
X116239442Y-123396428D01*
X116239442Y-123396428D02*
X116096584Y-123467856D01*
X116096584Y-123467856D02*
X115525156Y-123467856D01*
X115525156Y-123467856D02*
X115382299Y-123396428D01*
X115382299Y-123396428D02*
X115310870Y-123253571D01*
X115310870Y-123253571D02*
X115310870Y-122967856D01*
X115310870Y-122967856D02*
X115382299Y-122824999D01*
X115382299Y-122824999D02*
X115525156Y-122753571D01*
X115525156Y-122753571D02*
X115668013Y-122753571D01*
X115668013Y-122753571D02*
X115810870Y-123467856D01*
X115310870Y-121182142D02*
X115310870Y-120610714D01*
X116310870Y-120967857D02*
X115025156Y-120967857D01*
X115025156Y-120967857D02*
X114882299Y-120896428D01*
X114882299Y-120896428D02*
X114810870Y-120753571D01*
X114810870Y-120753571D02*
X114810870Y-120610714D01*
X116310870Y-119896428D02*
X116239442Y-120039285D01*
X116239442Y-120039285D02*
X116168013Y-120110714D01*
X116168013Y-120110714D02*
X116025156Y-120182142D01*
X116025156Y-120182142D02*
X115596584Y-120182142D01*
X115596584Y-120182142D02*
X115453727Y-120110714D01*
X115453727Y-120110714D02*
X115382299Y-120039285D01*
X115382299Y-120039285D02*
X115310870Y-119896428D01*
X115310870Y-119896428D02*
X115310870Y-119682142D01*
X115310870Y-119682142D02*
X115382299Y-119539285D01*
X115382299Y-119539285D02*
X115453727Y-119467857D01*
X115453727Y-119467857D02*
X115596584Y-119396428D01*
X115596584Y-119396428D02*
X116025156Y-119396428D01*
X116025156Y-119396428D02*
X116168013Y-119467857D01*
X116168013Y-119467857D02*
X116239442Y-119539285D01*
X116239442Y-119539285D02*
X116310870Y-119682142D01*
X116310870Y-119682142D02*
X116310870Y-119896428D01*
X116310870Y-118753571D02*
X115310870Y-118753571D01*
X115596584Y-118753571D02*
X115453727Y-118682142D01*
X115453727Y-118682142D02*
X115382299Y-118610714D01*
X115382299Y-118610714D02*
X115310870Y-118467856D01*
X115310870Y-118467856D02*
X115310870Y-118324999D01*
X116310870Y-116682143D02*
X114810870Y-116682143D01*
X114810870Y-116682143D02*
X115882299Y-116182143D01*
X115882299Y-116182143D02*
X114810870Y-115682143D01*
X114810870Y-115682143D02*
X116310870Y-115682143D01*
X116239442Y-115039285D02*
X116310870Y-114825000D01*
X116310870Y-114825000D02*
X116310870Y-114467857D01*
X116310870Y-114467857D02*
X116239442Y-114325000D01*
X116239442Y-114325000D02*
X116168013Y-114253571D01*
X116168013Y-114253571D02*
X116025156Y-114182142D01*
X116025156Y-114182142D02*
X115882299Y-114182142D01*
X115882299Y-114182142D02*
X115739442Y-114253571D01*
X115739442Y-114253571D02*
X115668013Y-114325000D01*
X115668013Y-114325000D02*
X115596584Y-114467857D01*
X115596584Y-114467857D02*
X115525156Y-114753571D01*
X115525156Y-114753571D02*
X115453727Y-114896428D01*
X115453727Y-114896428D02*
X115382299Y-114967857D01*
X115382299Y-114967857D02*
X115239442Y-115039285D01*
X115239442Y-115039285D02*
X115096584Y-115039285D01*
X115096584Y-115039285D02*
X114953727Y-114967857D01*
X114953727Y-114967857D02*
X114882299Y-114896428D01*
X114882299Y-114896428D02*
X114810870Y-114753571D01*
X114810870Y-114753571D02*
X114810870Y-114396428D01*
X114810870Y-114396428D02*
X114882299Y-114182142D01*
X114810870Y-113682143D02*
X116310870Y-112682143D01*
X114810870Y-112682143D02*
X116310870Y-113682143D01*
X116239442Y-111039286D02*
X116310870Y-110825001D01*
X116310870Y-110825001D02*
X116310870Y-110467858D01*
X116310870Y-110467858D02*
X116239442Y-110325001D01*
X116239442Y-110325001D02*
X116168013Y-110253572D01*
X116168013Y-110253572D02*
X116025156Y-110182143D01*
X116025156Y-110182143D02*
X115882299Y-110182143D01*
X115882299Y-110182143D02*
X115739442Y-110253572D01*
X115739442Y-110253572D02*
X115668013Y-110325001D01*
X115668013Y-110325001D02*
X115596584Y-110467858D01*
X115596584Y-110467858D02*
X115525156Y-110753572D01*
X115525156Y-110753572D02*
X115453727Y-110896429D01*
X115453727Y-110896429D02*
X115382299Y-110967858D01*
X115382299Y-110967858D02*
X115239442Y-111039286D01*
X115239442Y-111039286D02*
X115096584Y-111039286D01*
X115096584Y-111039286D02*
X114953727Y-110967858D01*
X114953727Y-110967858D02*
X114882299Y-110896429D01*
X114882299Y-110896429D02*
X114810870Y-110753572D01*
X114810870Y-110753572D02*
X114810870Y-110396429D01*
X114810870Y-110396429D02*
X114882299Y-110182143D01*
X115310870Y-109682144D02*
X116310870Y-109325001D01*
X115310870Y-108967858D02*
X116310870Y-109325001D01*
X116310870Y-109325001D02*
X116668013Y-109467858D01*
X116668013Y-109467858D02*
X116739442Y-109539287D01*
X116739442Y-109539287D02*
X116810870Y-109682144D01*
X116239442Y-108467858D02*
X116310870Y-108325001D01*
X116310870Y-108325001D02*
X116310870Y-108039287D01*
X116310870Y-108039287D02*
X116239442Y-107896430D01*
X116239442Y-107896430D02*
X116096584Y-107825001D01*
X116096584Y-107825001D02*
X116025156Y-107825001D01*
X116025156Y-107825001D02*
X115882299Y-107896430D01*
X115882299Y-107896430D02*
X115810870Y-108039287D01*
X115810870Y-108039287D02*
X115810870Y-108253573D01*
X115810870Y-108253573D02*
X115739442Y-108396430D01*
X115739442Y-108396430D02*
X115596584Y-108467858D01*
X115596584Y-108467858D02*
X115525156Y-108467858D01*
X115525156Y-108467858D02*
X115382299Y-108396430D01*
X115382299Y-108396430D02*
X115310870Y-108253573D01*
X115310870Y-108253573D02*
X115310870Y-108039287D01*
X115310870Y-108039287D02*
X115382299Y-107896430D01*
X115310870Y-107396429D02*
X115310870Y-106825001D01*
X114810870Y-107182144D02*
X116096584Y-107182144D01*
X116096584Y-107182144D02*
X116239442Y-107110715D01*
X116239442Y-107110715D02*
X116310870Y-106967858D01*
X116310870Y-106967858D02*
X116310870Y-106825001D01*
X116239442Y-105753572D02*
X116310870Y-105896429D01*
X116310870Y-105896429D02*
X116310870Y-106182144D01*
X116310870Y-106182144D02*
X116239442Y-106325001D01*
X116239442Y-106325001D02*
X116096584Y-106396429D01*
X116096584Y-106396429D02*
X115525156Y-106396429D01*
X115525156Y-106396429D02*
X115382299Y-106325001D01*
X115382299Y-106325001D02*
X115310870Y-106182144D01*
X115310870Y-106182144D02*
X115310870Y-105896429D01*
X115310870Y-105896429D02*
X115382299Y-105753572D01*
X115382299Y-105753572D02*
X115525156Y-105682144D01*
X115525156Y-105682144D02*
X115668013Y-105682144D01*
X115668013Y-105682144D02*
X115810870Y-106396429D01*
X116310870Y-105039287D02*
X115310870Y-105039287D01*
X115453727Y-105039287D02*
X115382299Y-104967858D01*
X115382299Y-104967858D02*
X115310870Y-104825001D01*
X115310870Y-104825001D02*
X115310870Y-104610715D01*
X115310870Y-104610715D02*
X115382299Y-104467858D01*
X115382299Y-104467858D02*
X115525156Y-104396430D01*
X115525156Y-104396430D02*
X116310870Y-104396430D01*
X115525156Y-104396430D02*
X115382299Y-104325001D01*
X115382299Y-104325001D02*
X115310870Y-104182144D01*
X115310870Y-104182144D02*
X115310870Y-103967858D01*
X115310870Y-103967858D02*
X115382299Y-103825001D01*
X115382299Y-103825001D02*
X115525156Y-103753572D01*
X115525156Y-103753572D02*
X116310870Y-103753572D01*
X116239442Y-103110715D02*
X116310870Y-102967858D01*
X116310870Y-102967858D02*
X116310870Y-102682144D01*
X116310870Y-102682144D02*
X116239442Y-102539287D01*
X116239442Y-102539287D02*
X116096584Y-102467858D01*
X116096584Y-102467858D02*
X116025156Y-102467858D01*
X116025156Y-102467858D02*
X115882299Y-102539287D01*
X115882299Y-102539287D02*
X115810870Y-102682144D01*
X115810870Y-102682144D02*
X115810870Y-102896430D01*
X115810870Y-102896430D02*
X115739442Y-103039287D01*
X115739442Y-103039287D02*
X115596584Y-103110715D01*
X115596584Y-103110715D02*
X115525156Y-103110715D01*
X115525156Y-103110715D02*
X115382299Y-103039287D01*
X115382299Y-103039287D02*
X115310870Y-102896430D01*
X115310870Y-102896430D02*
X115310870Y-102682144D01*
X115310870Y-102682144D02*
X115382299Y-102539287D01*
X118582929Y-140610712D02*
X118654358Y-140682140D01*
X118654358Y-140682140D02*
X118725786Y-140896426D01*
X118725786Y-140896426D02*
X118725786Y-141039283D01*
X118725786Y-141039283D02*
X118654358Y-141253569D01*
X118654358Y-141253569D02*
X118511500Y-141396426D01*
X118511500Y-141396426D02*
X118368643Y-141467855D01*
X118368643Y-141467855D02*
X118082929Y-141539283D01*
X118082929Y-141539283D02*
X117868643Y-141539283D01*
X117868643Y-141539283D02*
X117582929Y-141467855D01*
X117582929Y-141467855D02*
X117440072Y-141396426D01*
X117440072Y-141396426D02*
X117297215Y-141253569D01*
X117297215Y-141253569D02*
X117225786Y-141039283D01*
X117225786Y-141039283D02*
X117225786Y-140896426D01*
X117225786Y-140896426D02*
X117297215Y-140682140D01*
X117297215Y-140682140D02*
X117368643Y-140610712D01*
X118725786Y-139753569D02*
X118654358Y-139896426D01*
X118654358Y-139896426D02*
X118582929Y-139967855D01*
X118582929Y-139967855D02*
X118440072Y-140039283D01*
X118440072Y-140039283D02*
X118011500Y-140039283D01*
X118011500Y-140039283D02*
X117868643Y-139967855D01*
X117868643Y-139967855D02*
X117797215Y-139896426D01*
X117797215Y-139896426D02*
X117725786Y-139753569D01*
X117725786Y-139753569D02*
X117725786Y-139539283D01*
X117725786Y-139539283D02*
X117797215Y-139396426D01*
X117797215Y-139396426D02*
X117868643Y-139324998D01*
X117868643Y-139324998D02*
X118011500Y-139253569D01*
X118011500Y-139253569D02*
X118440072Y-139253569D01*
X118440072Y-139253569D02*
X118582929Y-139324998D01*
X118582929Y-139324998D02*
X118654358Y-139396426D01*
X118654358Y-139396426D02*
X118725786Y-139539283D01*
X118725786Y-139539283D02*
X118725786Y-139753569D01*
X117725786Y-138610712D02*
X119225786Y-138610712D01*
X117797215Y-138610712D02*
X117725786Y-138467855D01*
X117725786Y-138467855D02*
X117725786Y-138182140D01*
X117725786Y-138182140D02*
X117797215Y-138039283D01*
X117797215Y-138039283D02*
X117868643Y-137967855D01*
X117868643Y-137967855D02*
X118011500Y-137896426D01*
X118011500Y-137896426D02*
X118440072Y-137896426D01*
X118440072Y-137896426D02*
X118582929Y-137967855D01*
X118582929Y-137967855D02*
X118654358Y-138039283D01*
X118654358Y-138039283D02*
X118725786Y-138182140D01*
X118725786Y-138182140D02*
X118725786Y-138467855D01*
X118725786Y-138467855D02*
X118654358Y-138610712D01*
X117725786Y-137396426D02*
X118725786Y-137039283D01*
X117725786Y-136682140D02*
X118725786Y-137039283D01*
X118725786Y-137039283D02*
X119082929Y-137182140D01*
X119082929Y-137182140D02*
X119154358Y-137253569D01*
X119154358Y-137253569D02*
X119225786Y-137396426D01*
X118725786Y-136110712D02*
X117725786Y-136110712D01*
X118011500Y-136110712D02*
X117868643Y-136039283D01*
X117868643Y-136039283D02*
X117797215Y-135967855D01*
X117797215Y-135967855D02*
X117725786Y-135824997D01*
X117725786Y-135824997D02*
X117725786Y-135682140D01*
X118725786Y-135182141D02*
X117725786Y-135182141D01*
X117225786Y-135182141D02*
X117297215Y-135253569D01*
X117297215Y-135253569D02*
X117368643Y-135182141D01*
X117368643Y-135182141D02*
X117297215Y-135110712D01*
X117297215Y-135110712D02*
X117225786Y-135182141D01*
X117225786Y-135182141D02*
X117368643Y-135182141D01*
X117725786Y-133824998D02*
X118940072Y-133824998D01*
X118940072Y-133824998D02*
X119082929Y-133896426D01*
X119082929Y-133896426D02*
X119154358Y-133967855D01*
X119154358Y-133967855D02*
X119225786Y-134110712D01*
X119225786Y-134110712D02*
X119225786Y-134324998D01*
X119225786Y-134324998D02*
X119154358Y-134467855D01*
X118654358Y-133824998D02*
X118725786Y-133967855D01*
X118725786Y-133967855D02*
X118725786Y-134253569D01*
X118725786Y-134253569D02*
X118654358Y-134396426D01*
X118654358Y-134396426D02*
X118582929Y-134467855D01*
X118582929Y-134467855D02*
X118440072Y-134539283D01*
X118440072Y-134539283D02*
X118011500Y-134539283D01*
X118011500Y-134539283D02*
X117868643Y-134467855D01*
X117868643Y-134467855D02*
X117797215Y-134396426D01*
X117797215Y-134396426D02*
X117725786Y-134253569D01*
X117725786Y-134253569D02*
X117725786Y-133967855D01*
X117725786Y-133967855D02*
X117797215Y-133824998D01*
X118725786Y-133110712D02*
X117225786Y-133110712D01*
X118725786Y-132467855D02*
X117940072Y-132467855D01*
X117940072Y-132467855D02*
X117797215Y-132539283D01*
X117797215Y-132539283D02*
X117725786Y-132682140D01*
X117725786Y-132682140D02*
X117725786Y-132896426D01*
X117725786Y-132896426D02*
X117797215Y-133039283D01*
X117797215Y-133039283D02*
X117868643Y-133110712D01*
X117725786Y-131967854D02*
X117725786Y-131396426D01*
X117225786Y-131753569D02*
X118511500Y-131753569D01*
X118511500Y-131753569D02*
X118654358Y-131682140D01*
X118654358Y-131682140D02*
X118725786Y-131539283D01*
X118725786Y-131539283D02*
X118725786Y-131396426D01*
X119297215Y-129324997D02*
X119225786Y-129396426D01*
X119225786Y-129396426D02*
X119011500Y-129539283D01*
X119011500Y-129539283D02*
X118868643Y-129610712D01*
X118868643Y-129610712D02*
X118654358Y-129682140D01*
X118654358Y-129682140D02*
X118297215Y-129753569D01*
X118297215Y-129753569D02*
X118011500Y-129753569D01*
X118011500Y-129753569D02*
X117654358Y-129682140D01*
X117654358Y-129682140D02*
X117440072Y-129610712D01*
X117440072Y-129610712D02*
X117297215Y-129539283D01*
X117297215Y-129539283D02*
X117082929Y-129396426D01*
X117082929Y-129396426D02*
X117011500Y-129324997D01*
X118654358Y-128110712D02*
X118725786Y-128253569D01*
X118725786Y-128253569D02*
X118725786Y-128539283D01*
X118725786Y-128539283D02*
X118654358Y-128682140D01*
X118654358Y-128682140D02*
X118582929Y-128753569D01*
X118582929Y-128753569D02*
X118440072Y-128824997D01*
X118440072Y-128824997D02*
X118011500Y-128824997D01*
X118011500Y-128824997D02*
X117868643Y-128753569D01*
X117868643Y-128753569D02*
X117797215Y-128682140D01*
X117797215Y-128682140D02*
X117725786Y-128539283D01*
X117725786Y-128539283D02*
X117725786Y-128253569D01*
X117725786Y-128253569D02*
X117797215Y-128110712D01*
X119297215Y-127610712D02*
X119225786Y-127539283D01*
X119225786Y-127539283D02*
X119011500Y-127396426D01*
X119011500Y-127396426D02*
X118868643Y-127324998D01*
X118868643Y-127324998D02*
X118654358Y-127253569D01*
X118654358Y-127253569D02*
X118297215Y-127182140D01*
X118297215Y-127182140D02*
X118011500Y-127182140D01*
X118011500Y-127182140D02*
X117654358Y-127253569D01*
X117654358Y-127253569D02*
X117440072Y-127324998D01*
X117440072Y-127324998D02*
X117297215Y-127396426D01*
X117297215Y-127396426D02*
X117082929Y-127539283D01*
X117082929Y-127539283D02*
X117011500Y-127610712D01*
X117368643Y-125396426D02*
X117297215Y-125324998D01*
X117297215Y-125324998D02*
X117225786Y-125182141D01*
X117225786Y-125182141D02*
X117225786Y-124824998D01*
X117225786Y-124824998D02*
X117297215Y-124682141D01*
X117297215Y-124682141D02*
X117368643Y-124610712D01*
X117368643Y-124610712D02*
X117511500Y-124539283D01*
X117511500Y-124539283D02*
X117654358Y-124539283D01*
X117654358Y-124539283D02*
X117868643Y-124610712D01*
X117868643Y-124610712D02*
X118725786Y-125467855D01*
X118725786Y-125467855D02*
X118725786Y-124539283D01*
X117225786Y-123610712D02*
X117225786Y-123467855D01*
X117225786Y-123467855D02*
X117297215Y-123324998D01*
X117297215Y-123324998D02*
X117368643Y-123253570D01*
X117368643Y-123253570D02*
X117511500Y-123182141D01*
X117511500Y-123182141D02*
X117797215Y-123110712D01*
X117797215Y-123110712D02*
X118154358Y-123110712D01*
X118154358Y-123110712D02*
X118440072Y-123182141D01*
X118440072Y-123182141D02*
X118582929Y-123253570D01*
X118582929Y-123253570D02*
X118654358Y-123324998D01*
X118654358Y-123324998D02*
X118725786Y-123467855D01*
X118725786Y-123467855D02*
X118725786Y-123610712D01*
X118725786Y-123610712D02*
X118654358Y-123753570D01*
X118654358Y-123753570D02*
X118582929Y-123824998D01*
X118582929Y-123824998D02*
X118440072Y-123896427D01*
X118440072Y-123896427D02*
X118154358Y-123967855D01*
X118154358Y-123967855D02*
X117797215Y-123967855D01*
X117797215Y-123967855D02*
X117511500Y-123896427D01*
X117511500Y-123896427D02*
X117368643Y-123824998D01*
X117368643Y-123824998D02*
X117297215Y-123753570D01*
X117297215Y-123753570D02*
X117225786Y-123610712D01*
X118725786Y-121682141D02*
X118725786Y-122539284D01*
X118725786Y-122110713D02*
X117225786Y-122110713D01*
X117225786Y-122110713D02*
X117440072Y-122253570D01*
X117440072Y-122253570D02*
X117582929Y-122396427D01*
X117582929Y-122396427D02*
X117654358Y-122539284D01*
X117225786Y-120396428D02*
X117225786Y-120682142D01*
X117225786Y-120682142D02*
X117297215Y-120824999D01*
X117297215Y-120824999D02*
X117368643Y-120896428D01*
X117368643Y-120896428D02*
X117582929Y-121039285D01*
X117582929Y-121039285D02*
X117868643Y-121110713D01*
X117868643Y-121110713D02*
X118440072Y-121110713D01*
X118440072Y-121110713D02*
X118582929Y-121039285D01*
X118582929Y-121039285D02*
X118654358Y-120967856D01*
X118654358Y-120967856D02*
X118725786Y-120824999D01*
X118725786Y-120824999D02*
X118725786Y-120539285D01*
X118725786Y-120539285D02*
X118654358Y-120396428D01*
X118654358Y-120396428D02*
X118582929Y-120324999D01*
X118582929Y-120324999D02*
X118440072Y-120253570D01*
X118440072Y-120253570D02*
X118082929Y-120253570D01*
X118082929Y-120253570D02*
X117940072Y-120324999D01*
X117940072Y-120324999D02*
X117868643Y-120396428D01*
X117868643Y-120396428D02*
X117797215Y-120539285D01*
X117797215Y-120539285D02*
X117797215Y-120824999D01*
X117797215Y-120824999D02*
X117868643Y-120967856D01*
X117868643Y-120967856D02*
X117940072Y-121039285D01*
X117940072Y-121039285D02*
X118082929Y-121110713D01*
X118297215Y-118539285D02*
X118297215Y-117825000D01*
X118725786Y-118682142D02*
X117225786Y-118182142D01*
X117225786Y-118182142D02*
X118725786Y-117682142D01*
X118725786Y-116967857D02*
X118654358Y-117110714D01*
X118654358Y-117110714D02*
X118511500Y-117182143D01*
X118511500Y-117182143D02*
X117225786Y-117182143D01*
X117725786Y-116539286D02*
X118725786Y-116182143D01*
X118725786Y-116182143D02*
X117725786Y-115825000D01*
X118725786Y-114610715D02*
X117940072Y-114610715D01*
X117940072Y-114610715D02*
X117797215Y-114682143D01*
X117797215Y-114682143D02*
X117725786Y-114825000D01*
X117725786Y-114825000D02*
X117725786Y-115110715D01*
X117725786Y-115110715D02*
X117797215Y-115253572D01*
X118654358Y-114610715D02*
X118725786Y-114753572D01*
X118725786Y-114753572D02*
X118725786Y-115110715D01*
X118725786Y-115110715D02*
X118654358Y-115253572D01*
X118654358Y-115253572D02*
X118511500Y-115325000D01*
X118511500Y-115325000D02*
X118368643Y-115325000D01*
X118368643Y-115325000D02*
X118225786Y-115253572D01*
X118225786Y-115253572D02*
X118154358Y-115110715D01*
X118154358Y-115110715D02*
X118154358Y-114753572D01*
X118154358Y-114753572D02*
X118082929Y-114610715D01*
X118725786Y-113896429D02*
X117725786Y-113896429D01*
X118011500Y-113896429D02*
X117868643Y-113825000D01*
X117868643Y-113825000D02*
X117797215Y-113753572D01*
X117797215Y-113753572D02*
X117725786Y-113610714D01*
X117725786Y-113610714D02*
X117725786Y-113467857D01*
X118725786Y-112753572D02*
X118654358Y-112896429D01*
X118654358Y-112896429D02*
X118582929Y-112967858D01*
X118582929Y-112967858D02*
X118440072Y-113039286D01*
X118440072Y-113039286D02*
X118011500Y-113039286D01*
X118011500Y-113039286D02*
X117868643Y-112967858D01*
X117868643Y-112967858D02*
X117797215Y-112896429D01*
X117797215Y-112896429D02*
X117725786Y-112753572D01*
X117725786Y-112753572D02*
X117725786Y-112539286D01*
X117725786Y-112539286D02*
X117797215Y-112396429D01*
X117797215Y-112396429D02*
X117868643Y-112325001D01*
X117868643Y-112325001D02*
X118011500Y-112253572D01*
X118011500Y-112253572D02*
X118440072Y-112253572D01*
X118440072Y-112253572D02*
X118582929Y-112325001D01*
X118582929Y-112325001D02*
X118654358Y-112396429D01*
X118654358Y-112396429D02*
X118725786Y-112539286D01*
X118725786Y-112539286D02*
X118725786Y-112753572D01*
X118725786Y-110467858D02*
X117225786Y-110467858D01*
X117225786Y-110467858D02*
X117225786Y-109896429D01*
X117225786Y-109896429D02*
X117297215Y-109753572D01*
X117297215Y-109753572D02*
X117368643Y-109682143D01*
X117368643Y-109682143D02*
X117511500Y-109610715D01*
X117511500Y-109610715D02*
X117725786Y-109610715D01*
X117725786Y-109610715D02*
X117868643Y-109682143D01*
X117868643Y-109682143D02*
X117940072Y-109753572D01*
X117940072Y-109753572D02*
X118011500Y-109896429D01*
X118011500Y-109896429D02*
X118011500Y-110467858D01*
X118725786Y-108753572D02*
X118654358Y-108896429D01*
X118654358Y-108896429D02*
X118582929Y-108967858D01*
X118582929Y-108967858D02*
X118440072Y-109039286D01*
X118440072Y-109039286D02*
X118011500Y-109039286D01*
X118011500Y-109039286D02*
X117868643Y-108967858D01*
X117868643Y-108967858D02*
X117797215Y-108896429D01*
X117797215Y-108896429D02*
X117725786Y-108753572D01*
X117725786Y-108753572D02*
X117725786Y-108539286D01*
X117725786Y-108539286D02*
X117797215Y-108396429D01*
X117797215Y-108396429D02*
X117868643Y-108325001D01*
X117868643Y-108325001D02*
X118011500Y-108253572D01*
X118011500Y-108253572D02*
X118440072Y-108253572D01*
X118440072Y-108253572D02*
X118582929Y-108325001D01*
X118582929Y-108325001D02*
X118654358Y-108396429D01*
X118654358Y-108396429D02*
X118725786Y-108539286D01*
X118725786Y-108539286D02*
X118725786Y-108753572D01*
X118725786Y-107396429D02*
X118654358Y-107539286D01*
X118654358Y-107539286D02*
X118511500Y-107610715D01*
X118511500Y-107610715D02*
X117225786Y-107610715D01*
X118725786Y-106610715D02*
X118654358Y-106753572D01*
X118654358Y-106753572D02*
X118582929Y-106825001D01*
X118582929Y-106825001D02*
X118440072Y-106896429D01*
X118440072Y-106896429D02*
X118011500Y-106896429D01*
X118011500Y-106896429D02*
X117868643Y-106825001D01*
X117868643Y-106825001D02*
X117797215Y-106753572D01*
X117797215Y-106753572D02*
X117725786Y-106610715D01*
X117725786Y-106610715D02*
X117725786Y-106396429D01*
X117725786Y-106396429D02*
X117797215Y-106253572D01*
X117797215Y-106253572D02*
X117868643Y-106182144D01*
X117868643Y-106182144D02*
X118011500Y-106110715D01*
X118011500Y-106110715D02*
X118440072Y-106110715D01*
X118440072Y-106110715D02*
X118582929Y-106182144D01*
X118582929Y-106182144D02*
X118654358Y-106253572D01*
X118654358Y-106253572D02*
X118725786Y-106396429D01*
X118725786Y-106396429D02*
X118725786Y-106610715D01*
D11*
X127934819Y-120776904D02*
X128744342Y-120776904D01*
X128744342Y-120776904D02*
X128839580Y-120729285D01*
X128839580Y-120729285D02*
X128887200Y-120681666D01*
X128887200Y-120681666D02*
X128934819Y-120586428D01*
X128934819Y-120586428D02*
X128934819Y-120395952D01*
X128934819Y-120395952D02*
X128887200Y-120300714D01*
X128887200Y-120300714D02*
X128839580Y-120253095D01*
X128839580Y-120253095D02*
X128744342Y-120205476D01*
X128744342Y-120205476D02*
X127934819Y-120205476D01*
X128030057Y-119776904D02*
X127982438Y-119729285D01*
X127982438Y-119729285D02*
X127934819Y-119634047D01*
X127934819Y-119634047D02*
X127934819Y-119395952D01*
X127934819Y-119395952D02*
X127982438Y-119300714D01*
X127982438Y-119300714D02*
X128030057Y-119253095D01*
X128030057Y-119253095D02*
X128125295Y-119205476D01*
X128125295Y-119205476D02*
X128220533Y-119205476D01*
X128220533Y-119205476D02*
X128363390Y-119253095D01*
X128363390Y-119253095D02*
X128934819Y-119824523D01*
X128934819Y-119824523D02*
X128934819Y-119205476D01*
X182014905Y-147054819D02*
X182014905Y-146054819D01*
X182014905Y-146054819D02*
X182395857Y-146054819D01*
X182395857Y-146054819D02*
X182491095Y-146102438D01*
X182491095Y-146102438D02*
X182538714Y-146150057D01*
X182538714Y-146150057D02*
X182586333Y-146245295D01*
X182586333Y-146245295D02*
X182586333Y-146388152D01*
X182586333Y-146388152D02*
X182538714Y-146483390D01*
X182538714Y-146483390D02*
X182491095Y-146531009D01*
X182491095Y-146531009D02*
X182395857Y-146578628D01*
X182395857Y-146578628D02*
X182014905Y-146578628D01*
X183538714Y-147054819D02*
X182967286Y-147054819D01*
X183253000Y-147054819D02*
X183253000Y-146054819D01*
X183253000Y-146054819D02*
X183157762Y-146197676D01*
X183157762Y-146197676D02*
X183062524Y-146292914D01*
X183062524Y-146292914D02*
X182967286Y-146340533D01*
X125459580Y-120141666D02*
X125507200Y-120189285D01*
X125507200Y-120189285D02*
X125554819Y-120332142D01*
X125554819Y-120332142D02*
X125554819Y-120427380D01*
X125554819Y-120427380D02*
X125507200Y-120570237D01*
X125507200Y-120570237D02*
X125411961Y-120665475D01*
X125411961Y-120665475D02*
X125316723Y-120713094D01*
X125316723Y-120713094D02*
X125126247Y-120760713D01*
X125126247Y-120760713D02*
X124983390Y-120760713D01*
X124983390Y-120760713D02*
X124792914Y-120713094D01*
X124792914Y-120713094D02*
X124697676Y-120665475D01*
X124697676Y-120665475D02*
X124602438Y-120570237D01*
X124602438Y-120570237D02*
X124554819Y-120427380D01*
X124554819Y-120427380D02*
X124554819Y-120332142D01*
X124554819Y-120332142D02*
X124602438Y-120189285D01*
X124602438Y-120189285D02*
X124650057Y-120141666D01*
X125554819Y-119189285D02*
X125554819Y-119760713D01*
X125554819Y-119474999D02*
X124554819Y-119474999D01*
X124554819Y-119474999D02*
X124697676Y-119570237D01*
X124697676Y-119570237D02*
X124792914Y-119665475D01*
X124792914Y-119665475D02*
X124840533Y-119760713D01*
D12*
%TO.C,U2*%
X129480000Y-113555000D02*
X129480000Y-119015000D01*
X129480000Y-121015000D02*
X129480000Y-126475000D01*
X129480000Y-126475000D02*
X170240000Y-126475000D01*
X170240000Y-113555000D02*
X129480000Y-113555000D01*
X170240000Y-126475000D02*
X170240000Y-113555000D01*
X129480000Y-119015000D02*
G75*
G02*
X129480000Y-121015000I0J-1000000D01*
G01*
%TO.C,C1*%
X122774000Y-116855000D02*
X122774000Y-123095000D01*
X124170000Y-116855000D02*
X122774000Y-116855000D01*
X124170000Y-123095000D02*
X122774000Y-123095000D01*
X127416000Y-116855000D02*
X126020000Y-116855000D01*
X127416000Y-116855000D02*
X127416000Y-123095000D01*
X127416000Y-123095000D02*
X126020000Y-123095000D01*
%TD*%
M02*
