%TF.GenerationSoftware,KiCad,Pcbnew,8.0.3+1*%
%TF.CreationDate,2024-07-19T21:35:54+02:00*%
%TF.ProjectId,rom64k,726f6d36-346b-42e6-9b69-6361645f7063,rev?*%
%TF.SameCoordinates,Original*%
%TF.FileFunction,Copper,L2,Bot*%
%TF.FilePolarity,Positive*%
%FSLAX46Y46*%
G04 Gerber Fmt 4.6, Leading zero omitted, Abs format (unit mm)*
G04 Created by KiCad (PCBNEW 8.0.3+1) date 2024-07-19 21:35:54*
%MOMM*%
%LPD*%
G01*
G04 APERTURE LIST*
%TA.AperFunction,ComponentPad*%
%ADD10R,1.600000X1.600000*%
%TD*%
%TA.AperFunction,ComponentPad*%
%ADD11O,1.600000X1.600000*%
%TD*%
%TA.AperFunction,ConnectorPad*%
%ADD12R,1.500000X11.000000*%
%TD*%
%TA.AperFunction,ComponentPad*%
%ADD13C,1.600000*%
%TD*%
%TA.AperFunction,ViaPad*%
%ADD14C,0.600000*%
%TD*%
%TA.AperFunction,Conductor*%
%ADD15C,0.400000*%
%TD*%
%TA.AperFunction,Conductor*%
%ADD16C,0.250000*%
%TD*%
G04 APERTURE END LIST*
D10*
%TO.P,U2,1,NC*%
%TO.N,GND*%
X130810000Y-127635000D03*
D11*
%TO.P,U2,2,A16*%
X133350000Y-127635000D03*
%TO.P,U2,3,A15*%
%TO.N,/A15*%
X135890000Y-127635000D03*
%TO.P,U2,4,A12*%
%TO.N,/A12*%
X138430000Y-127635000D03*
%TO.P,U2,5,A7*%
%TO.N,/A7*%
X140970000Y-127635000D03*
%TO.P,U2,6,A6*%
%TO.N,/A6*%
X143510000Y-127635000D03*
%TO.P,U2,7,A5*%
%TO.N,/A5*%
X146050000Y-127635000D03*
%TO.P,U2,8,A4*%
%TO.N,/A4*%
X148590000Y-127635000D03*
%TO.P,U2,9,A3*%
%TO.N,/A3*%
X151130000Y-127635000D03*
%TO.P,U2,10,A2*%
%TO.N,/A2*%
X153670000Y-127635000D03*
%TO.P,U2,11,A1*%
%TO.N,/A1*%
X156210000Y-127635000D03*
%TO.P,U2,12,A0*%
%TO.N,/A0*%
X158750000Y-127635000D03*
%TO.P,U2,13,D0*%
%TO.N,/D0*%
X161290000Y-127635000D03*
%TO.P,U2,14,D1*%
%TO.N,/D1*%
X163830000Y-127635000D03*
%TO.P,U2,15,D2*%
%TO.N,/D2*%
X166370000Y-127635000D03*
%TO.P,U2,16,GND*%
%TO.N,GND*%
X168910000Y-127635000D03*
%TO.P,U2,17,D3*%
%TO.N,/D3*%
X168910000Y-112395000D03*
%TO.P,U2,18,D4*%
%TO.N,/D4*%
X166370000Y-112395000D03*
%TO.P,U2,19,D5*%
%TO.N,/D5*%
X163830000Y-112395000D03*
%TO.P,U2,20,D6*%
%TO.N,/D6*%
X161290000Y-112395000D03*
%TO.P,U2,21,D7*%
%TO.N,/D7*%
X158750000Y-112395000D03*
%TO.P,U2,22,CE*%
%TO.N,~{SLTSL}*%
X156210000Y-112395000D03*
%TO.P,U2,23,A10*%
%TO.N,/A10*%
X153670000Y-112395000D03*
%TO.P,U2,24,OE*%
%TO.N,~{RD}*%
X151130000Y-112395000D03*
%TO.P,U2,25,A11*%
%TO.N,/A11*%
X148590000Y-112395000D03*
%TO.P,U2,26,A9*%
%TO.N,/A9*%
X146050000Y-112395000D03*
%TO.P,U2,27,A8*%
%TO.N,/A8*%
X143510000Y-112395000D03*
%TO.P,U2,28,A13*%
%TO.N,/A13*%
X140970000Y-112395000D03*
%TO.P,U2,29,A14*%
%TO.N,/A14*%
X138430000Y-112395000D03*
%TO.P,U2,30,NC*%
%TO.N,GND*%
X135890000Y-112395000D03*
%TO.P,U2,31,PGM*%
%TO.N,VCC*%
X133350000Y-112395000D03*
%TO.P,U2,32,VCC*%
X130810000Y-112395000D03*
%TD*%
D12*
%TO.P,P1,49,Pin_49*%
%TO.N,unconnected-(P1-Pad49)*%
X123825000Y-154813000D03*
%TO.P,P1,47,Pin_47*%
%TO.N,VCC*%
X126365000Y-154813000D03*
%TO.P,P1,45,Pin_45*%
X128905000Y-154813000D03*
%TO.P,P1,43,Pin_43*%
%TO.N,GND*%
X131445000Y-154813000D03*
%TO.P,P1,41,Pin_41*%
X133985000Y-154813000D03*
%TO.P,P1,39,Pin_39*%
%TO.N,/D7*%
X136525000Y-154813000D03*
%TO.P,P1,37,Pin_37*%
%TO.N,/D5*%
X139065000Y-154813000D03*
%TO.P,P1,35,Pin_35*%
%TO.N,/D3*%
X141605000Y-154813000D03*
%TO.P,P1,33,Pin_33*%
%TO.N,/D1*%
X144145000Y-154813000D03*
%TO.P,P1,31,Pin_31*%
%TO.N,/A5*%
X146685000Y-154813000D03*
%TO.P,P1,29,Pin_29*%
%TO.N,/A3*%
X149225000Y-154813000D03*
%TO.P,P1,27,Pin_27*%
%TO.N,/A1*%
X151765000Y-154813000D03*
%TO.P,P1,25,Pin_25*%
%TO.N,/A14*%
X154305000Y-154813000D03*
%TO.P,P1,23,Pin_23*%
%TO.N,/A12*%
X156845000Y-154813000D03*
%TO.P,P1,21,Pin_21*%
%TO.N,/A7*%
X159385000Y-154813000D03*
%TO.P,P1,19,Pin_19*%
%TO.N,/A11*%
X161925000Y-154813000D03*
%TO.P,P1,17,Pin_17*%
%TO.N,/A9*%
X164465000Y-154813000D03*
%TO.P,P1,15,Pin_15*%
%TO.N,unconnected-(P1-Pad15)*%
X167005000Y-154813000D03*
%TO.P,P1,13,Pin_13*%
%TO.N,unconnected-(P1-Pad13)*%
X169545000Y-154813000D03*
%TO.P,P1,11,Pin_11*%
%TO.N,unconnected-(P1-Pad11)*%
X172085000Y-154813000D03*
%TO.P,P1,9,Pin_9*%
%TO.N,unconnected-(P1-Pad9)*%
X174625000Y-154813000D03*
%TO.P,P1,7,Pin_7*%
%TO.N,unconnected-(P1-Pad7)*%
X177165000Y-154813000D03*
%TO.P,P1,5,Pin_5*%
%TO.N,unconnected-(P1-Pad5)*%
X179705000Y-154813000D03*
%TO.P,P1,3,Pin_3*%
%TO.N,unconnected-(P1-Pad3)*%
X182245000Y-154813000D03*
%TO.P,P1,1,Pin_1*%
%TO.N,unconnected-(P1-Pad1)*%
X184785000Y-154813000D03*
%TD*%
D13*
%TO.P,C1,1*%
%TO.N,VCC*%
X125095000Y-117475000D03*
%TO.P,C1,2*%
%TO.N,GND*%
X125095000Y-122475000D03*
%TD*%
D14*
%TO.N,/A9*%
X167640000Y-109855000D03*
%TO.N,/A11*%
X161925000Y-136525000D03*
X165100000Y-118110000D03*
X165100000Y-136525000D03*
%TO.N,/A7*%
X159385000Y-133350000D03*
%TO.N,/A12*%
X157480000Y-133985000D03*
%TO.N,/A14*%
X138430000Y-122555000D03*
X160020000Y-122555000D03*
%TO.N,/D1*%
X144145000Y-135255000D03*
%TO.N,/D3*%
X168910000Y-121920000D03*
X144780000Y-129700000D03*
%TO.N,/D5*%
X163830000Y-120650000D03*
X139700000Y-120650000D03*
%TO.N,/D7*%
X158750000Y-119380000D03*
X134620000Y-119380000D03*
%TO.N,/D6*%
X161290000Y-120015000D03*
X137795000Y-147320000D03*
X137160000Y-120015000D03*
%TO.N,/D4*%
X140335000Y-147320000D03*
X142240000Y-121285000D03*
X166370000Y-121285000D03*
%TO.N,/D2*%
X142875000Y-147320000D03*
X142875000Y-135890000D03*
%TO.N,/D0*%
X145415000Y-134620000D03*
X145415000Y-147320000D03*
%TO.N,/A4*%
X147955000Y-147320000D03*
%TO.N,/A2*%
X150495000Y-147320000D03*
%TO.N,/A0*%
X153035000Y-147320000D03*
%TO.N,/A13*%
X155575000Y-147320000D03*
X155575000Y-136525000D03*
%TO.N,/A8*%
X158115000Y-137160000D03*
X158115000Y-147320000D03*
%TO.N,/A6*%
X160655000Y-147320000D03*
X160655000Y-132715000D03*
%TO.N,/A10*%
X163195000Y-147320000D03*
X162560000Y-116840000D03*
%TO.N,/A15*%
X136525000Y-137795000D03*
%TD*%
D15*
%TO.N,VCC*%
X127000000Y-145415000D02*
X127635000Y-145415000D01*
X128270000Y-145415000D02*
X128905000Y-146050000D01*
X127635000Y-145415000D02*
X128270000Y-145415000D01*
X128270000Y-112395000D02*
X125095000Y-115570000D01*
X125095000Y-115570000D02*
X125095000Y-117475000D01*
X123190000Y-137795000D02*
X127635000Y-142240000D01*
X126365000Y-154813000D02*
X126365000Y-146050000D01*
X125095000Y-117475000D02*
X125730000Y-117475000D01*
X123190000Y-137795000D02*
X123190000Y-119380000D01*
X128905000Y-154813000D02*
X128905000Y-146050000D01*
X127635000Y-145415000D02*
X127635000Y-142240000D01*
X126365000Y-146050000D02*
X127000000Y-145415000D01*
X130810000Y-112395000D02*
X128270000Y-112395000D01*
X125095000Y-117475000D02*
X123190000Y-119380000D01*
%TO.N,GND*%
X133985000Y-148590000D02*
X133350000Y-147955000D01*
X133350000Y-147955000D02*
X132080000Y-147955000D01*
X132080000Y-147955000D02*
X131445000Y-148590000D01*
X131445000Y-148590000D02*
X131445000Y-154813000D01*
X125095000Y-125095000D02*
X127635000Y-127635000D01*
X127635000Y-127635000D02*
X130810000Y-127635000D01*
X135890000Y-125095000D02*
X135890000Y-112395000D01*
X125095000Y-122475000D02*
X125095000Y-125095000D01*
X133985000Y-154813000D02*
X133985000Y-148590000D01*
X133350000Y-127635000D02*
X135890000Y-125095000D01*
D16*
%TO.N,/A9*%
X164465000Y-138430000D02*
X165735000Y-137160000D01*
X165735000Y-130175000D02*
X167640000Y-128270000D01*
X167640000Y-128270000D02*
X167640000Y-109855000D01*
X165735000Y-137160000D02*
X165735000Y-130175000D01*
X164465000Y-154813000D02*
X164465000Y-138430000D01*
%TO.N,/A11*%
X165100000Y-136525000D02*
X165100000Y-118110000D01*
X161925000Y-154813000D02*
X161925000Y-136525000D01*
%TO.N,/A7*%
X159385000Y-154813000D02*
X159385000Y-133350000D01*
%TO.N,/A12*%
X156845000Y-134620000D02*
X157480000Y-133985000D01*
X156845000Y-154813000D02*
X156845000Y-134620000D01*
%TO.N,/A14*%
X154305000Y-135255000D02*
X160020000Y-129540000D01*
X160020000Y-129540000D02*
X160020000Y-122555000D01*
X138430000Y-122555000D02*
X138430000Y-112395000D01*
X154305000Y-154813000D02*
X154305000Y-135255000D01*
%TO.N,/A1*%
X151765000Y-133350000D02*
X156210000Y-128905000D01*
X156210000Y-128905000D02*
X156210000Y-127635000D01*
X151765000Y-135890000D02*
X151765000Y-133350000D01*
X151765000Y-154813000D02*
X151765000Y-136525000D01*
X151765000Y-136525000D02*
X151765000Y-135890000D01*
%TO.N,/A3*%
X149225000Y-130175000D02*
X151130000Y-128270000D01*
X151130000Y-128270000D02*
X151130000Y-127635000D01*
X149225000Y-154813000D02*
X149225000Y-136525000D01*
X149225000Y-136525000D02*
X149225000Y-130175000D01*
%TO.N,/A5*%
X146685000Y-129540000D02*
X146050000Y-128905000D01*
X146050000Y-128905000D02*
X146050000Y-127635000D01*
X146685000Y-154813000D02*
X146685000Y-135255000D01*
X146685000Y-135255000D02*
X146685000Y-129540000D01*
%TO.N,/D1*%
X144145000Y-154813000D02*
X144145000Y-135255000D01*
%TO.N,/D3*%
X168910000Y-121920000D02*
X168910000Y-112395000D01*
X141605000Y-135195000D02*
X141605000Y-154813000D01*
X144780000Y-129700000D02*
X144780000Y-132020000D01*
X144780000Y-132020000D02*
X141605000Y-135195000D01*
%TO.N,/D5*%
X163830000Y-120650000D02*
X163830000Y-112395000D01*
X139065000Y-133350000D02*
X139700000Y-132715000D01*
X139700000Y-132715000D02*
X139700000Y-120650000D01*
X139065000Y-154813000D02*
X139065000Y-133350000D01*
%TO.N,/D7*%
X158750000Y-119380000D02*
X158750000Y-112395000D01*
X132080000Y-126365000D02*
X132080000Y-130180000D01*
X133900000Y-132000000D02*
X133900000Y-137710000D01*
X134620000Y-123825000D02*
X132080000Y-126365000D01*
X132080000Y-130180000D02*
X133900000Y-132000000D01*
X133900000Y-137710000D02*
X136525000Y-140335000D01*
X134620000Y-119380000D02*
X134620000Y-123825000D01*
X136525000Y-140335000D02*
X136525000Y-154813000D01*
%TO.N,/D6*%
X161290000Y-120015000D02*
X161290000Y-112395000D01*
X137795000Y-147320000D02*
X137795000Y-133350000D01*
X137795000Y-132715000D02*
X137160000Y-132080000D01*
X137160000Y-132080000D02*
X137160000Y-120015000D01*
X137795000Y-133350000D02*
X137795000Y-132715000D01*
%TO.N,/D4*%
X166370000Y-121285000D02*
X166370000Y-112395000D01*
X142240000Y-132460000D02*
X142240000Y-121285000D01*
X140335000Y-147320000D02*
X140335000Y-134365000D01*
X140335000Y-134365000D02*
X142240000Y-132460000D01*
%TO.N,/D2*%
X142875000Y-147320000D02*
X142875000Y-135890000D01*
%TO.N,/D0*%
X145415000Y-147320000D02*
X145415000Y-134620000D01*
%TO.N,/A4*%
X147955000Y-147320000D02*
X147955000Y-135255000D01*
X147955000Y-129540000D02*
X148590000Y-128905000D01*
X148590000Y-128905000D02*
X148590000Y-127635000D01*
X147955000Y-135255000D02*
X147955000Y-129540000D01*
%TO.N,/A2*%
X150495000Y-147320000D02*
X150495000Y-136525000D01*
X150495000Y-132080000D02*
X153670000Y-128905000D01*
X153670000Y-128905000D02*
X153670000Y-127635000D01*
X150495000Y-135890000D02*
X150495000Y-135255000D01*
X150495000Y-136525000D02*
X150495000Y-135890000D01*
X150495000Y-135255000D02*
X150495000Y-132080000D01*
%TO.N,/A0*%
X153035000Y-147320000D02*
X153035000Y-136525000D01*
X153035000Y-134620000D02*
X158750000Y-128905000D01*
X158750000Y-128905000D02*
X158750000Y-127635000D01*
X153035000Y-136525000D02*
X153035000Y-134620000D01*
%TO.N,/A13*%
X155575000Y-147320000D02*
X155575000Y-136525000D01*
%TO.N,/A8*%
X158115000Y-137160000D02*
X158115000Y-147320000D01*
%TO.N,/A6*%
X160655000Y-147320000D02*
X160655000Y-132715000D01*
%TO.N,/A10*%
X163195000Y-147320000D02*
X163195000Y-137795000D01*
X163195000Y-137795000D02*
X163195000Y-134620000D01*
X163195000Y-134620000D02*
X162560000Y-133985000D01*
X162560000Y-133985000D02*
X162560000Y-116840000D01*
%TO.N,/A15*%
X135890000Y-134690000D02*
X135890000Y-127635000D01*
X136525000Y-135325000D02*
X135890000Y-134690000D01*
X136525000Y-137795000D02*
X136525000Y-135325000D01*
%TD*%
%TA.AperFunction,Conductor*%
%TO.N,GND*%
G36*
X177666621Y-95853502D02*
G01*
X177713114Y-95907158D01*
X177724500Y-95959500D01*
X177724500Y-99075018D01*
X177735993Y-99102766D01*
X177735996Y-99102770D01*
X177757229Y-99124003D01*
X177757233Y-99124006D01*
X177784982Y-99135500D01*
X192838500Y-99135500D01*
X192906621Y-99155502D01*
X192953114Y-99209158D01*
X192964500Y-99261500D01*
X192964500Y-149150500D01*
X192944498Y-149218621D01*
X192890842Y-149265114D01*
X192838500Y-149276500D01*
X187197000Y-149276500D01*
X187128879Y-149256498D01*
X187082386Y-149202842D01*
X187071000Y-149150500D01*
X187071000Y-148717000D01*
X164970500Y-148717000D01*
X164902379Y-148696998D01*
X164855886Y-148643342D01*
X164844500Y-148591000D01*
X164844500Y-139564995D01*
X179779650Y-139564995D01*
X179779650Y-139565004D01*
X179799024Y-139848260D01*
X179799025Y-139848266D01*
X179799026Y-139848274D01*
X179830708Y-140000736D01*
X179856793Y-140126265D01*
X179856795Y-140126273D01*
X179951881Y-140393820D01*
X180082505Y-140645909D01*
X180082514Y-140645924D01*
X180246246Y-140877880D01*
X180246249Y-140877884D01*
X180440051Y-141085395D01*
X180660303Y-141264583D01*
X180902904Y-141412112D01*
X181163333Y-141525233D01*
X181436740Y-141601838D01*
X181523517Y-141613765D01*
X181718018Y-141640499D01*
X181718032Y-141640500D01*
X182001968Y-141640500D01*
X182001981Y-141640499D01*
X182167556Y-141617740D01*
X182283260Y-141601838D01*
X182556667Y-141525233D01*
X182817096Y-141412112D01*
X183059697Y-141264583D01*
X183279949Y-141085395D01*
X183473751Y-140877884D01*
X183637491Y-140645916D01*
X183767442Y-140395125D01*
X183768118Y-140393820D01*
X183768118Y-140393819D01*
X183768121Y-140393814D01*
X183863205Y-140126272D01*
X183920974Y-139848274D01*
X183940350Y-139565000D01*
X183920974Y-139281726D01*
X183863205Y-139003728D01*
X183768121Y-138736186D01*
X183768119Y-138736182D01*
X183768118Y-138736179D01*
X183637494Y-138484090D01*
X183637491Y-138484084D01*
X183634581Y-138479962D01*
X183507168Y-138299457D01*
X183473751Y-138252116D01*
X183279949Y-138044605D01*
X183059697Y-137865417D01*
X182832815Y-137727447D01*
X182817093Y-137717886D01*
X182556667Y-137604767D01*
X182473030Y-137581333D01*
X182283260Y-137528162D01*
X182283259Y-137528161D01*
X182283256Y-137528161D01*
X182001981Y-137489500D01*
X182001968Y-137489500D01*
X181718032Y-137489500D01*
X181718018Y-137489500D01*
X181436743Y-137528161D01*
X181163332Y-137604767D01*
X180902906Y-137717886D01*
X180744175Y-137814413D01*
X180674995Y-137856483D01*
X180660300Y-137865419D01*
X180440056Y-138044601D01*
X180440048Y-138044608D01*
X180246246Y-138252119D01*
X180082514Y-138484075D01*
X180082505Y-138484090D01*
X179951881Y-138736179D01*
X179856795Y-139003726D01*
X179856793Y-139003734D01*
X179799025Y-139281733D01*
X179799024Y-139281739D01*
X179779650Y-139564995D01*
X164844500Y-139564995D01*
X164844500Y-138639383D01*
X164864502Y-138571262D01*
X164881400Y-138550292D01*
X165957642Y-137474050D01*
X165957652Y-137474043D01*
X166038670Y-137393025D01*
X166038676Y-137393019D01*
X166088638Y-137306482D01*
X166093225Y-137289364D01*
X166114501Y-137209962D01*
X166114501Y-137110038D01*
X166114501Y-137102321D01*
X166114500Y-137102303D01*
X166114500Y-130384383D01*
X166134502Y-130316262D01*
X166151400Y-130295293D01*
X167846856Y-128599836D01*
X167909168Y-128565811D01*
X167979983Y-128570876D01*
X168025046Y-128599837D01*
X168066019Y-128640810D01*
X168066025Y-128640815D01*
X168253501Y-128772087D01*
X168460926Y-128868811D01*
X168460931Y-128868813D01*
X168656000Y-128921081D01*
X168656000Y-127946686D01*
X168664394Y-127955080D01*
X168755606Y-128007741D01*
X168857339Y-128035000D01*
X168962661Y-128035000D01*
X169064394Y-128007741D01*
X169155606Y-127955080D01*
X169164000Y-127946686D01*
X169164000Y-128921081D01*
X169359068Y-128868813D01*
X169359073Y-128868811D01*
X169566498Y-128772087D01*
X169753974Y-128640815D01*
X169753980Y-128640810D01*
X169915810Y-128478980D01*
X169915815Y-128478974D01*
X170047087Y-128291498D01*
X170143811Y-128084073D01*
X170143813Y-128084068D01*
X170196082Y-127889000D01*
X169221686Y-127889000D01*
X169230080Y-127880606D01*
X169282741Y-127789394D01*
X169310000Y-127687661D01*
X169310000Y-127582339D01*
X169282741Y-127480606D01*
X169230080Y-127389394D01*
X169221686Y-127381000D01*
X170196082Y-127381000D01*
X170143813Y-127185931D01*
X170143811Y-127185926D01*
X170047087Y-126978501D01*
X169915815Y-126791025D01*
X169915810Y-126791019D01*
X169753980Y-126629189D01*
X169753974Y-126629184D01*
X169566498Y-126497912D01*
X169359073Y-126401188D01*
X169359071Y-126401187D01*
X169164000Y-126348917D01*
X169164000Y-127323314D01*
X169155606Y-127314920D01*
X169064394Y-127262259D01*
X168962661Y-127235000D01*
X168857339Y-127235000D01*
X168755606Y-127262259D01*
X168664394Y-127314920D01*
X168656000Y-127323314D01*
X168656000Y-126348917D01*
X168655999Y-126348917D01*
X168460928Y-126401187D01*
X168460926Y-126401188D01*
X168253499Y-126497913D01*
X168217769Y-126522931D01*
X168150495Y-126545618D01*
X168081635Y-126528332D01*
X168033051Y-126476561D01*
X168019500Y-126419717D01*
X168019500Y-113294737D01*
X168039502Y-113226616D01*
X168093158Y-113180123D01*
X168163432Y-113170019D01*
X168225434Y-113197338D01*
X168321318Y-113276028D01*
X168356321Y-113294737D01*
X168463896Y-113352237D01*
X168514544Y-113401987D01*
X168530500Y-113463358D01*
X168530500Y-121460936D01*
X168510498Y-121529057D01*
X168504463Y-121537639D01*
X168425649Y-121640352D01*
X168425646Y-121640355D01*
X168425645Y-121640358D01*
X168409028Y-121680474D01*
X168369771Y-121775247D01*
X168350715Y-121919999D01*
X168350715Y-121920000D01*
X168369771Y-122064752D01*
X168425644Y-122199641D01*
X168425649Y-122199649D01*
X168514525Y-122315474D01*
X168630350Y-122404350D01*
X168630357Y-122404355D01*
X168765246Y-122460228D01*
X168910000Y-122479285D01*
X169054754Y-122460228D01*
X169189643Y-122404355D01*
X169305474Y-122315474D01*
X169394355Y-122199643D01*
X169450228Y-122064754D01*
X169469285Y-121920000D01*
X169450228Y-121775246D01*
X169394355Y-121640358D01*
X169372666Y-121612092D01*
X169315537Y-121537639D01*
X169289937Y-121471419D01*
X169289500Y-121460936D01*
X169289500Y-113463358D01*
X169309502Y-113395237D01*
X169356102Y-113352237D01*
X169498683Y-113276027D01*
X169659252Y-113144252D01*
X169791027Y-112983683D01*
X169888945Y-112800492D01*
X169949242Y-112601718D01*
X169950122Y-112592789D01*
X169969602Y-112395003D01*
X169969602Y-112394996D01*
X169949243Y-112188288D01*
X169949242Y-112188286D01*
X169949242Y-112188282D01*
X169888945Y-111989508D01*
X169791027Y-111806317D01*
X169791025Y-111806313D01*
X169659252Y-111645747D01*
X169498686Y-111513975D01*
X169498686Y-111513974D01*
X169315492Y-111416055D01*
X169226926Y-111389189D01*
X169116718Y-111355758D01*
X169116717Y-111355757D01*
X169116711Y-111355756D01*
X168910003Y-111335398D01*
X168909997Y-111335398D01*
X168703288Y-111355756D01*
X168504507Y-111416055D01*
X168321316Y-111513973D01*
X168225433Y-111592662D01*
X168160086Y-111620415D01*
X168090107Y-111608433D01*
X168037716Y-111560520D01*
X168019500Y-111495262D01*
X168019500Y-110314063D01*
X168039502Y-110245942D01*
X168045538Y-110237359D01*
X168124350Y-110134649D01*
X168124355Y-110134643D01*
X168180228Y-109999754D01*
X168199285Y-109855000D01*
X168180228Y-109710246D01*
X168124355Y-109575358D01*
X168035474Y-109459526D01*
X168035472Y-109459524D01*
X168035471Y-109459523D01*
X167919649Y-109370649D01*
X167919641Y-109370644D01*
X167784752Y-109314771D01*
X167640000Y-109295715D01*
X167495247Y-109314771D01*
X167427802Y-109342708D01*
X167360358Y-109370645D01*
X167360357Y-109370646D01*
X167360356Y-109370646D01*
X167244526Y-109459526D01*
X167155646Y-109575356D01*
X167155645Y-109575358D01*
X167127708Y-109642802D01*
X167099771Y-109710247D01*
X167080715Y-109854999D01*
X167080715Y-109855000D01*
X167099771Y-109999752D01*
X167155644Y-110134641D01*
X167155649Y-110134649D01*
X167234462Y-110237359D01*
X167260063Y-110303579D01*
X167260500Y-110314063D01*
X167260500Y-111495262D01*
X167240498Y-111563383D01*
X167186842Y-111609876D01*
X167116568Y-111619980D01*
X167054567Y-111592662D01*
X166958683Y-111513973D01*
X166775492Y-111416055D01*
X166686926Y-111389189D01*
X166576718Y-111355758D01*
X166576717Y-111355757D01*
X166576711Y-111355756D01*
X166370003Y-111335398D01*
X166369997Y-111335398D01*
X166163288Y-111355756D01*
X165964507Y-111416055D01*
X165781313Y-111513974D01*
X165781313Y-111513975D01*
X165620747Y-111645747D01*
X165488975Y-111806313D01*
X165488974Y-111806313D01*
X165391055Y-111989507D01*
X165330756Y-112188288D01*
X165310398Y-112394996D01*
X165310398Y-112395003D01*
X165330756Y-112601711D01*
X165330757Y-112601717D01*
X165330758Y-112601718D01*
X165351579Y-112670355D01*
X165391055Y-112800492D01*
X165488974Y-112983686D01*
X165620747Y-113144252D01*
X165781313Y-113276024D01*
X165781317Y-113276027D01*
X165923896Y-113352237D01*
X165974544Y-113401987D01*
X165990500Y-113463358D01*
X165990500Y-120825936D01*
X165970498Y-120894057D01*
X165964463Y-120902639D01*
X165885649Y-121005352D01*
X165885646Y-121005355D01*
X165885645Y-121005358D01*
X165869028Y-121045474D01*
X165829771Y-121140247D01*
X165810715Y-121284999D01*
X165810715Y-121285000D01*
X165829771Y-121429752D01*
X165885644Y-121564641D01*
X165885649Y-121564649D01*
X165974525Y-121680474D01*
X166090350Y-121769350D01*
X166090357Y-121769355D01*
X166225246Y-121825228D01*
X166370000Y-121844285D01*
X166514754Y-121825228D01*
X166649643Y-121769355D01*
X166765474Y-121680474D01*
X166854355Y-121564643D01*
X166910228Y-121429754D01*
X166929285Y-121285000D01*
X166910228Y-121140246D01*
X166854355Y-121005358D01*
X166832666Y-120977092D01*
X166775537Y-120902639D01*
X166749937Y-120836419D01*
X166749500Y-120825936D01*
X166749500Y-113463358D01*
X166769502Y-113395237D01*
X166816102Y-113352237D01*
X166958683Y-113276027D01*
X167054566Y-113197337D01*
X167119914Y-113169584D01*
X167189892Y-113181566D01*
X167242284Y-113229478D01*
X167260500Y-113294737D01*
X167260500Y-126735262D01*
X167240498Y-126803383D01*
X167186842Y-126849876D01*
X167116568Y-126859980D01*
X167054567Y-126832662D01*
X166958683Y-126753973D01*
X166775492Y-126656055D01*
X166686926Y-126629189D01*
X166576718Y-126595758D01*
X166576717Y-126595757D01*
X166576711Y-126595756D01*
X166370003Y-126575398D01*
X166369997Y-126575398D01*
X166163288Y-126595756D01*
X165964507Y-126656055D01*
X165781316Y-126753973D01*
X165685433Y-126832662D01*
X165620086Y-126860415D01*
X165550107Y-126848433D01*
X165497716Y-126800520D01*
X165479500Y-126735262D01*
X165479500Y-118569063D01*
X165499502Y-118500942D01*
X165505538Y-118492359D01*
X165584350Y-118389649D01*
X165584355Y-118389643D01*
X165640228Y-118254754D01*
X165659285Y-118110000D01*
X165640228Y-117965246D01*
X165584355Y-117830358D01*
X165495474Y-117714526D01*
X165495472Y-117714524D01*
X165495471Y-117714523D01*
X165379649Y-117625649D01*
X165379641Y-117625644D01*
X165244752Y-117569771D01*
X165100000Y-117550715D01*
X164955247Y-117569771D01*
X164887802Y-117597708D01*
X164820358Y-117625645D01*
X164820357Y-117625646D01*
X164820356Y-117625646D01*
X164704526Y-117714526D01*
X164615646Y-117830356D01*
X164615645Y-117830358D01*
X164594879Y-117880492D01*
X164559771Y-117965247D01*
X164540715Y-118109999D01*
X164540715Y-118110000D01*
X164559771Y-118254752D01*
X164615644Y-118389641D01*
X164615649Y-118389649D01*
X164694462Y-118492359D01*
X164720063Y-118558579D01*
X164720500Y-118569063D01*
X164720500Y-126735262D01*
X164700498Y-126803383D01*
X164646842Y-126849876D01*
X164576568Y-126859980D01*
X164514567Y-126832662D01*
X164418683Y-126753973D01*
X164235492Y-126656055D01*
X164146926Y-126629189D01*
X164036718Y-126595758D01*
X164036717Y-126595757D01*
X164036711Y-126595756D01*
X163830003Y-126575398D01*
X163829997Y-126575398D01*
X163623288Y-126595756D01*
X163424507Y-126656055D01*
X163241316Y-126753973D01*
X163145433Y-126832662D01*
X163080086Y-126860415D01*
X163010107Y-126848433D01*
X162957716Y-126800520D01*
X162939500Y-126735262D01*
X162939500Y-117299063D01*
X162959502Y-117230942D01*
X162965538Y-117222359D01*
X163044350Y-117119649D01*
X163044355Y-117119643D01*
X163100228Y-116984754D01*
X163119285Y-116840000D01*
X163100228Y-116695246D01*
X163044355Y-116560358D01*
X162955474Y-116444526D01*
X162955472Y-116444524D01*
X162955471Y-116444523D01*
X162839649Y-116355649D01*
X162839641Y-116355644D01*
X162704752Y-116299771D01*
X162560000Y-116280715D01*
X162415247Y-116299771D01*
X162347802Y-116327708D01*
X162280358Y-116355645D01*
X162280357Y-116355646D01*
X162280356Y-116355646D01*
X162164526Y-116444526D01*
X162075646Y-116560356D01*
X162075645Y-116560358D01*
X162047708Y-116627802D01*
X162019771Y-116695247D01*
X162000715Y-116839999D01*
X162000715Y-116840000D01*
X162019771Y-116984752D01*
X162075644Y-117119641D01*
X162075649Y-117119649D01*
X162154462Y-117222359D01*
X162180063Y-117288579D01*
X162180500Y-117299063D01*
X162180500Y-126735262D01*
X162160498Y-126803383D01*
X162106842Y-126849876D01*
X162036568Y-126859980D01*
X161974567Y-126832662D01*
X161878683Y-126753973D01*
X161695492Y-126656055D01*
X161606926Y-126629189D01*
X161496718Y-126595758D01*
X161496717Y-126595757D01*
X161496711Y-126595756D01*
X161290003Y-126575398D01*
X161289997Y-126575398D01*
X161083288Y-126595756D01*
X160884507Y-126656055D01*
X160701316Y-126753973D01*
X160605433Y-126832662D01*
X160540086Y-126860415D01*
X160470107Y-126848433D01*
X160417716Y-126800520D01*
X160399500Y-126735262D01*
X160399500Y-123014063D01*
X160419502Y-122945942D01*
X160425538Y-122937359D01*
X160504350Y-122834649D01*
X160504355Y-122834643D01*
X160560228Y-122699754D01*
X160579285Y-122555000D01*
X160560228Y-122410246D01*
X160504355Y-122275358D01*
X160415474Y-122159526D01*
X160415472Y-122159524D01*
X160415471Y-122159523D01*
X160299649Y-122070649D01*
X160299641Y-122070644D01*
X160164752Y-122014771D01*
X160020000Y-121995715D01*
X159875247Y-122014771D01*
X159841377Y-122028801D01*
X159740358Y-122070645D01*
X159740357Y-122070646D01*
X159740356Y-122070646D01*
X159624526Y-122159526D01*
X159535646Y-122275356D01*
X159535645Y-122275358D01*
X159507708Y-122342802D01*
X159479771Y-122410247D01*
X159460715Y-122554999D01*
X159460715Y-122555000D01*
X159479771Y-122699752D01*
X159535644Y-122834641D01*
X159535649Y-122834649D01*
X159614462Y-122937359D01*
X159640063Y-123003579D01*
X159640500Y-123014063D01*
X159640500Y-126735262D01*
X159620498Y-126803383D01*
X159566842Y-126849876D01*
X159496568Y-126859980D01*
X159434567Y-126832662D01*
X159338683Y-126753973D01*
X159155492Y-126656055D01*
X159066926Y-126629189D01*
X158956718Y-126595758D01*
X158956717Y-126595757D01*
X158956711Y-126595756D01*
X158750003Y-126575398D01*
X158749997Y-126575398D01*
X158543288Y-126595756D01*
X158344507Y-126656055D01*
X158161313Y-126753974D01*
X158161313Y-126753975D01*
X158000747Y-126885747D01*
X157868975Y-127046313D01*
X157868974Y-127046313D01*
X157771055Y-127229507D01*
X157710756Y-127428288D01*
X157690398Y-127634996D01*
X157690398Y-127635003D01*
X157710756Y-127841711D01*
X157710757Y-127841717D01*
X157710758Y-127841718D01*
X157725101Y-127889000D01*
X157771055Y-128040492D01*
X157868974Y-128223686D01*
X158000747Y-128384252D01*
X158161313Y-128516024D01*
X158161316Y-128516026D01*
X158161317Y-128516027D01*
X158298850Y-128589540D01*
X158349498Y-128639291D01*
X158365208Y-128708527D01*
X158340992Y-128775266D01*
X158328549Y-128789756D01*
X155426392Y-131691913D01*
X152801983Y-134316322D01*
X152801981Y-134316324D01*
X152777949Y-134340356D01*
X152731325Y-134386979D01*
X152731321Y-134386984D01*
X152681364Y-134473514D01*
X152681362Y-134473518D01*
X152678286Y-134485000D01*
X152676776Y-134490634D01*
X152676775Y-134490636D01*
X152655499Y-134570034D01*
X152655499Y-134680112D01*
X152655500Y-134680125D01*
X152655500Y-146860936D01*
X152635498Y-146929057D01*
X152629463Y-146937639D01*
X152550649Y-147040352D01*
X152550646Y-147040355D01*
X152550645Y-147040358D01*
X152522708Y-147107802D01*
X152494771Y-147175247D01*
X152475715Y-147319999D01*
X152475715Y-147320000D01*
X152494771Y-147464752D01*
X152550644Y-147599641D01*
X152550649Y-147599649D01*
X152639525Y-147715474D01*
X152755350Y-147804350D01*
X152755357Y-147804355D01*
X152890246Y-147860228D01*
X153035000Y-147879285D01*
X153179754Y-147860228D01*
X153314643Y-147804355D01*
X153430474Y-147715474D01*
X153519355Y-147599643D01*
X153575228Y-147464754D01*
X153594285Y-147320000D01*
X153575228Y-147175246D01*
X153519355Y-147040358D01*
X153497666Y-147012092D01*
X153440537Y-146937639D01*
X153414937Y-146871419D01*
X153414500Y-146860936D01*
X153414500Y-134829383D01*
X153434502Y-134761262D01*
X153451400Y-134740293D01*
X158972642Y-129219050D01*
X158972652Y-129219043D01*
X159053670Y-129138025D01*
X159053676Y-129138019D01*
X159103638Y-129051482D01*
X159103639Y-129051481D01*
X159129501Y-128954962D01*
X159129501Y-128855038D01*
X159129501Y-128847321D01*
X159129500Y-128847303D01*
X159129500Y-128703358D01*
X159149502Y-128635237D01*
X159196102Y-128592237D01*
X159338683Y-128516027D01*
X159434566Y-128437337D01*
X159499914Y-128409584D01*
X159569892Y-128421566D01*
X159622284Y-128469478D01*
X159640500Y-128534737D01*
X159640500Y-129330615D01*
X159620498Y-129398736D01*
X159603595Y-129419710D01*
X156848534Y-132174771D01*
X154071983Y-134951322D01*
X154071981Y-134951324D01*
X154047949Y-134975356D01*
X154001325Y-135021979D01*
X154001321Y-135021984D01*
X153951361Y-135108519D01*
X153947068Y-135124542D01*
X153925499Y-135205034D01*
X153925499Y-135315112D01*
X153925500Y-135315125D01*
X153925500Y-148591000D01*
X153905498Y-148659121D01*
X153851842Y-148705614D01*
X153799500Y-148717000D01*
X152270500Y-148717000D01*
X152202379Y-148696998D01*
X152155886Y-148643342D01*
X152144500Y-148591000D01*
X152144500Y-133559383D01*
X152164502Y-133491262D01*
X152181400Y-133470293D01*
X156432642Y-129219050D01*
X156432652Y-129219043D01*
X156513670Y-129138025D01*
X156513676Y-129138019D01*
X156563638Y-129051482D01*
X156589500Y-128954962D01*
X156589500Y-128703358D01*
X156609502Y-128635237D01*
X156656102Y-128592237D01*
X156798683Y-128516027D01*
X156959252Y-128384252D01*
X157091027Y-128223683D01*
X157188945Y-128040492D01*
X157249242Y-127841718D01*
X157250288Y-127831104D01*
X157269602Y-127635003D01*
X157269602Y-127634996D01*
X157249243Y-127428288D01*
X157249242Y-127428286D01*
X157249242Y-127428282D01*
X157188945Y-127229508D01*
X157091027Y-127046317D01*
X157091025Y-127046313D01*
X156959252Y-126885747D01*
X156798686Y-126753975D01*
X156798686Y-126753974D01*
X156615492Y-126656055D01*
X156526926Y-126629189D01*
X156416718Y-126595758D01*
X156416717Y-126595757D01*
X156416711Y-126595756D01*
X156210003Y-126575398D01*
X156209997Y-126575398D01*
X156003288Y-126595756D01*
X155804507Y-126656055D01*
X155621313Y-126753974D01*
X155621313Y-126753975D01*
X155460747Y-126885747D01*
X155328975Y-127046313D01*
X155328974Y-127046313D01*
X155231055Y-127229507D01*
X155170756Y-127428288D01*
X155150398Y-127634996D01*
X155150398Y-127635003D01*
X155170756Y-127841711D01*
X155170757Y-127841717D01*
X155170758Y-127841718D01*
X155185101Y-127889000D01*
X155231055Y-128040492D01*
X155328974Y-128223686D01*
X155460747Y-128384252D01*
X155621313Y-128516024D01*
X155621316Y-128516026D01*
X155621317Y-128516027D01*
X155758850Y-128589540D01*
X155809498Y-128639291D01*
X155825208Y-128708527D01*
X155800992Y-128775266D01*
X155788549Y-128789756D01*
X152886392Y-131691913D01*
X151531983Y-133046322D01*
X151531981Y-133046324D01*
X151507949Y-133070356D01*
X151461325Y-133116979D01*
X151461321Y-133116984D01*
X151411362Y-133203516D01*
X151411363Y-133203516D01*
X151411362Y-133203520D01*
X151385499Y-133300036D01*
X151385499Y-133410112D01*
X151385500Y-133410125D01*
X151385500Y-148591000D01*
X151365498Y-148659121D01*
X151311842Y-148705614D01*
X151259500Y-148717000D01*
X149730500Y-148717000D01*
X149662379Y-148696998D01*
X149615886Y-148643342D01*
X149604500Y-148591000D01*
X149604500Y-147319999D01*
X149935715Y-147319999D01*
X149935715Y-147320000D01*
X149954771Y-147464752D01*
X150010644Y-147599641D01*
X150010649Y-147599649D01*
X150099525Y-147715474D01*
X150215350Y-147804350D01*
X150215357Y-147804355D01*
X150350246Y-147860228D01*
X150495000Y-147879285D01*
X150639754Y-147860228D01*
X150774643Y-147804355D01*
X150890474Y-147715474D01*
X150979355Y-147599643D01*
X151035228Y-147464754D01*
X151054285Y-147320000D01*
X151035228Y-147175246D01*
X150979355Y-147040358D01*
X150957666Y-147012092D01*
X150900537Y-146937639D01*
X150874937Y-146871419D01*
X150874500Y-146860936D01*
X150874500Y-132289383D01*
X150894502Y-132221262D01*
X150911400Y-132200293D01*
X153892642Y-129219050D01*
X153892652Y-129219043D01*
X153973670Y-129138025D01*
X153973676Y-129138019D01*
X154023638Y-129051482D01*
X154027102Y-129038548D01*
X154029104Y-129031082D01*
X154029104Y-129031080D01*
X154049501Y-128954962D01*
X154049501Y-128855038D01*
X154049501Y-128847321D01*
X154049500Y-128847303D01*
X154049500Y-128703358D01*
X154069502Y-128635237D01*
X154116102Y-128592237D01*
X154258683Y-128516027D01*
X154419252Y-128384252D01*
X154551027Y-128223683D01*
X154648945Y-128040492D01*
X154709242Y-127841718D01*
X154710288Y-127831104D01*
X154729602Y-127635003D01*
X154729602Y-127634996D01*
X154709243Y-127428288D01*
X154709242Y-127428286D01*
X154709242Y-127428282D01*
X154648945Y-127229508D01*
X154551027Y-127046317D01*
X154551025Y-127046313D01*
X154419252Y-126885747D01*
X154258686Y-126753975D01*
X154258686Y-126753974D01*
X154075492Y-126656055D01*
X153986926Y-126629189D01*
X153876718Y-126595758D01*
X153876717Y-126595757D01*
X153876711Y-126595756D01*
X153670003Y-126575398D01*
X153669997Y-126575398D01*
X153463288Y-126595756D01*
X153264507Y-126656055D01*
X153081313Y-126753974D01*
X153081313Y-126753975D01*
X152920747Y-126885747D01*
X152788975Y-127046313D01*
X152788974Y-127046313D01*
X152691055Y-127229507D01*
X152630756Y-127428288D01*
X152610398Y-127634996D01*
X152610398Y-127635003D01*
X152630756Y-127841711D01*
X152630757Y-127841717D01*
X152630758Y-127841718D01*
X152645101Y-127889000D01*
X152691055Y-128040492D01*
X152788974Y-128223686D01*
X152920747Y-128384252D01*
X153081313Y-128516024D01*
X153081316Y-128516026D01*
X153081317Y-128516027D01*
X153218850Y-128589540D01*
X153269498Y-128639291D01*
X153285208Y-128708527D01*
X153260992Y-128775266D01*
X153248549Y-128789756D01*
X151743017Y-130295288D01*
X150261983Y-131776322D01*
X150261981Y-131776324D01*
X150227690Y-131810615D01*
X150191325Y-131846979D01*
X150191321Y-131846984D01*
X150141362Y-131933516D01*
X150141363Y-131933516D01*
X150141362Y-131933520D01*
X150115499Y-132030036D01*
X150115499Y-132140112D01*
X150115500Y-132140125D01*
X150115500Y-146860936D01*
X150095498Y-146929057D01*
X150089463Y-146937639D01*
X150010649Y-147040352D01*
X150010646Y-147040355D01*
X150010645Y-147040358D01*
X149982708Y-147107802D01*
X149954771Y-147175247D01*
X149935715Y-147319999D01*
X149604500Y-147319999D01*
X149604500Y-130384383D01*
X149624502Y-130316262D01*
X149641400Y-130295293D01*
X151222460Y-128714232D01*
X151284770Y-128680209D01*
X151299186Y-128677938D01*
X151336718Y-128674242D01*
X151535492Y-128613945D01*
X151718683Y-128516027D01*
X151718684Y-128516025D01*
X151718686Y-128516025D01*
X151718686Y-128516024D01*
X151879252Y-128384252D01*
X152011027Y-128223683D01*
X152108945Y-128040492D01*
X152169242Y-127841718D01*
X152170288Y-127831104D01*
X152189602Y-127635003D01*
X152189602Y-127634996D01*
X152169243Y-127428288D01*
X152169242Y-127428286D01*
X152169242Y-127428282D01*
X152108945Y-127229508D01*
X152011027Y-127046317D01*
X152011025Y-127046313D01*
X151879252Y-126885747D01*
X151718686Y-126753975D01*
X151718686Y-126753974D01*
X151535492Y-126656055D01*
X151446926Y-126629189D01*
X151336718Y-126595758D01*
X151336717Y-126595757D01*
X151336711Y-126595756D01*
X151130003Y-126575398D01*
X151129997Y-126575398D01*
X150923288Y-126595756D01*
X150724507Y-126656055D01*
X150541313Y-126753974D01*
X150541313Y-126753975D01*
X150380747Y-126885747D01*
X150248975Y-127046313D01*
X150248974Y-127046313D01*
X150151055Y-127229507D01*
X150090756Y-127428288D01*
X150070398Y-127634996D01*
X150070398Y-127635003D01*
X150090756Y-127841711D01*
X150090757Y-127841717D01*
X150090758Y-127841718D01*
X150151055Y-128040492D01*
X150248973Y-128223683D01*
X150352612Y-128349969D01*
X150380366Y-128415314D01*
X150368384Y-128485293D01*
X150344308Y-128518996D01*
X149654629Y-129208676D01*
X148991983Y-129871322D01*
X148991981Y-129871324D01*
X148969500Y-129893805D01*
X148921325Y-129941979D01*
X148921321Y-129941984D01*
X148871362Y-130028516D01*
X148871363Y-130028516D01*
X148871362Y-130028520D01*
X148845499Y-130125036D01*
X148845499Y-130235112D01*
X148845500Y-130235125D01*
X148845500Y-148591000D01*
X148825498Y-148659121D01*
X148771842Y-148705614D01*
X148719500Y-148717000D01*
X147190500Y-148717000D01*
X147122379Y-148696998D01*
X147075886Y-148643342D01*
X147064500Y-148591000D01*
X147064500Y-147319999D01*
X147395715Y-147319999D01*
X147395715Y-147320000D01*
X147414771Y-147464752D01*
X147470644Y-147599641D01*
X147470649Y-147599649D01*
X147559525Y-147715474D01*
X147675350Y-147804350D01*
X147675357Y-147804355D01*
X147810246Y-147860228D01*
X147955000Y-147879285D01*
X148099754Y-147860228D01*
X148234643Y-147804355D01*
X148350474Y-147715474D01*
X148439355Y-147599643D01*
X148495228Y-147464754D01*
X148514285Y-147320000D01*
X148495228Y-147175246D01*
X148439355Y-147040358D01*
X148417666Y-147012092D01*
X148360537Y-146937639D01*
X148334937Y-146871419D01*
X148334500Y-146860936D01*
X148334500Y-129749384D01*
X148354502Y-129681263D01*
X148371400Y-129660293D01*
X148812643Y-129219049D01*
X148812653Y-129219042D01*
X148893670Y-129138025D01*
X148893676Y-129138019D01*
X148943638Y-129051482D01*
X148943639Y-129051481D01*
X148969501Y-128954962D01*
X148969501Y-128855038D01*
X148969501Y-128847321D01*
X148969500Y-128847303D01*
X148969500Y-128703358D01*
X148989502Y-128635237D01*
X149036102Y-128592237D01*
X149178683Y-128516027D01*
X149339252Y-128384252D01*
X149471027Y-128223683D01*
X149568945Y-128040492D01*
X149629242Y-127841718D01*
X149630288Y-127831104D01*
X149649602Y-127635003D01*
X149649602Y-127634996D01*
X149629243Y-127428288D01*
X149629242Y-127428286D01*
X149629242Y-127428282D01*
X149568945Y-127229508D01*
X149471027Y-127046317D01*
X149471025Y-127046313D01*
X149339252Y-126885747D01*
X149178686Y-126753975D01*
X149178686Y-126753974D01*
X148995492Y-126656055D01*
X148906926Y-126629189D01*
X148796718Y-126595758D01*
X148796717Y-126595757D01*
X148796711Y-126595756D01*
X148590003Y-126575398D01*
X148589997Y-126575398D01*
X148383288Y-126595756D01*
X148184507Y-126656055D01*
X148001313Y-126753974D01*
X148001313Y-126753975D01*
X147840747Y-126885747D01*
X147708975Y-127046313D01*
X147708974Y-127046313D01*
X147611055Y-127229507D01*
X147550756Y-127428288D01*
X147530398Y-127634996D01*
X147530398Y-127635003D01*
X147550756Y-127841711D01*
X147550757Y-127841717D01*
X147550758Y-127841718D01*
X147565101Y-127889000D01*
X147611055Y-128040492D01*
X147708974Y-128223686D01*
X147840747Y-128384252D01*
X148001313Y-128516024D01*
X148001313Y-128516025D01*
X148024995Y-128528683D01*
X148138850Y-128589540D01*
X148189497Y-128639291D01*
X148205207Y-128708528D01*
X148180991Y-128775267D01*
X148168548Y-128789756D01*
X147721990Y-129236313D01*
X147721983Y-129236321D01*
X147721983Y-129236322D01*
X147721981Y-129236324D01*
X147686653Y-129271652D01*
X147651325Y-129306979D01*
X147651321Y-129306984D01*
X147601361Y-129393519D01*
X147597068Y-129409542D01*
X147575499Y-129490034D01*
X147575499Y-129600112D01*
X147575500Y-129600125D01*
X147575500Y-146860936D01*
X147555498Y-146929057D01*
X147549463Y-146937639D01*
X147470649Y-147040352D01*
X147470646Y-147040355D01*
X147470645Y-147040358D01*
X147442708Y-147107802D01*
X147414771Y-147175247D01*
X147395715Y-147319999D01*
X147064500Y-147319999D01*
X147064500Y-129600125D01*
X147064501Y-129600112D01*
X147064501Y-129490039D01*
X147045830Y-129420357D01*
X147038639Y-129393519D01*
X147015233Y-129352979D01*
X146988676Y-129306981D01*
X146988674Y-129306979D01*
X146988670Y-129306974D01*
X146913630Y-129231934D01*
X146913607Y-129231913D01*
X146471450Y-128789756D01*
X146437424Y-128727444D01*
X146442489Y-128656629D01*
X146485036Y-128599793D01*
X146501128Y-128589551D01*
X146638683Y-128516027D01*
X146799252Y-128384252D01*
X146931027Y-128223683D01*
X147028945Y-128040492D01*
X147089242Y-127841718D01*
X147090288Y-127831104D01*
X147109602Y-127635003D01*
X147109602Y-127634996D01*
X147089243Y-127428288D01*
X147089242Y-127428286D01*
X147089242Y-127428282D01*
X147028945Y-127229508D01*
X146931027Y-127046317D01*
X146931025Y-127046313D01*
X146799252Y-126885747D01*
X146638686Y-126753975D01*
X146638686Y-126753974D01*
X146455492Y-126656055D01*
X146366926Y-126629189D01*
X146256718Y-126595758D01*
X146256717Y-126595757D01*
X146256711Y-126595756D01*
X146050003Y-126575398D01*
X146049997Y-126575398D01*
X145843288Y-126595756D01*
X145644507Y-126656055D01*
X145461313Y-126753974D01*
X145461313Y-126753975D01*
X145300747Y-126885747D01*
X145168975Y-127046313D01*
X145168974Y-127046313D01*
X145071055Y-127229507D01*
X145010756Y-127428288D01*
X144990398Y-127634996D01*
X144990398Y-127635003D01*
X145010756Y-127841711D01*
X145010757Y-127841717D01*
X145010758Y-127841718D01*
X145025101Y-127889000D01*
X145071055Y-128040492D01*
X145168974Y-128223686D01*
X145300747Y-128384252D01*
X145461313Y-128516024D01*
X145461316Y-128516026D01*
X145461317Y-128516027D01*
X145603896Y-128592237D01*
X145654544Y-128641987D01*
X145670500Y-128703358D01*
X145670500Y-128847303D01*
X145670499Y-128847321D01*
X145670499Y-128954965D01*
X145690896Y-129031084D01*
X145690897Y-129031086D01*
X145696361Y-129051480D01*
X145746321Y-129138015D01*
X145746329Y-129138025D01*
X145824156Y-129215852D01*
X145824170Y-129215864D01*
X146268595Y-129660289D01*
X146302621Y-129722601D01*
X146305500Y-129749384D01*
X146305500Y-148591000D01*
X146285498Y-148659121D01*
X146231842Y-148705614D01*
X146179500Y-148717000D01*
X144650500Y-148717000D01*
X144582379Y-148696998D01*
X144535886Y-148643342D01*
X144524500Y-148591000D01*
X144524500Y-135714063D01*
X144544502Y-135645942D01*
X144550538Y-135637359D01*
X144605358Y-135565916D01*
X144629355Y-135534643D01*
X144685228Y-135399754D01*
X144704285Y-135255000D01*
X144702963Y-135244962D01*
X144685228Y-135110247D01*
X144685228Y-135110246D01*
X144629355Y-134975358D01*
X144540474Y-134859526D01*
X144540472Y-134859524D01*
X144540471Y-134859523D01*
X144424649Y-134770649D01*
X144424641Y-134770644D01*
X144289752Y-134714771D01*
X144145000Y-134695715D01*
X144000247Y-134714771D01*
X143938643Y-134740289D01*
X143865358Y-134770645D01*
X143865357Y-134770646D01*
X143865356Y-134770646D01*
X143749526Y-134859526D01*
X143660646Y-134975356D01*
X143660645Y-134975358D01*
X143641606Y-135021322D01*
X143604771Y-135110247D01*
X143585715Y-135254999D01*
X143585715Y-135255000D01*
X143604771Y-135399752D01*
X143660644Y-135534641D01*
X143660649Y-135534649D01*
X143739462Y-135637359D01*
X143765063Y-135703579D01*
X143765500Y-135714063D01*
X143765500Y-148591000D01*
X143745498Y-148659121D01*
X143691842Y-148705614D01*
X143639500Y-148717000D01*
X142110500Y-148717000D01*
X142042379Y-148696998D01*
X141995886Y-148643342D01*
X141984500Y-148591000D01*
X141984500Y-135889999D01*
X142315715Y-135889999D01*
X142315715Y-135890000D01*
X142334771Y-136034752D01*
X142390644Y-136169641D01*
X142390649Y-136169649D01*
X142469462Y-136272359D01*
X142495063Y-136338579D01*
X142495500Y-136349063D01*
X142495500Y-146860936D01*
X142475498Y-146929057D01*
X142469463Y-146937639D01*
X142390649Y-147040352D01*
X142390646Y-147040355D01*
X142390645Y-147040358D01*
X142362708Y-147107802D01*
X142334771Y-147175247D01*
X142315715Y-147319999D01*
X142315715Y-147320000D01*
X142334771Y-147464752D01*
X142390644Y-147599641D01*
X142390649Y-147599649D01*
X142479525Y-147715474D01*
X142595350Y-147804350D01*
X142595357Y-147804355D01*
X142730246Y-147860228D01*
X142875000Y-147879285D01*
X143019754Y-147860228D01*
X143154643Y-147804355D01*
X143270474Y-147715474D01*
X143359355Y-147599643D01*
X143415228Y-147464754D01*
X143434285Y-147320000D01*
X143415228Y-147175246D01*
X143359355Y-147040358D01*
X143337666Y-147012092D01*
X143280537Y-146937639D01*
X143254937Y-146871419D01*
X143254500Y-146860936D01*
X143254500Y-136349063D01*
X143274502Y-136280942D01*
X143280538Y-136272359D01*
X143359350Y-136169649D01*
X143359355Y-136169643D01*
X143415228Y-136034754D01*
X143434285Y-135890000D01*
X143415228Y-135745246D01*
X143359355Y-135610358D01*
X143270474Y-135494526D01*
X143270472Y-135494524D01*
X143270471Y-135494523D01*
X143154649Y-135405649D01*
X143154641Y-135405644D01*
X143019752Y-135349771D01*
X142875000Y-135330715D01*
X142730247Y-135349771D01*
X142662802Y-135377708D01*
X142595358Y-135405645D01*
X142595357Y-135405646D01*
X142595356Y-135405646D01*
X142479526Y-135494526D01*
X142390646Y-135610356D01*
X142390645Y-135610358D01*
X142374028Y-135650474D01*
X142334771Y-135745247D01*
X142315715Y-135889999D01*
X141984500Y-135889999D01*
X141984500Y-135404383D01*
X142004502Y-135336262D01*
X142021400Y-135315293D01*
X142716694Y-134619999D01*
X144855715Y-134619999D01*
X144855715Y-134620000D01*
X144874771Y-134764752D01*
X144930644Y-134899641D01*
X144930649Y-134899649D01*
X145009462Y-135002359D01*
X145035063Y-135068579D01*
X145035500Y-135079063D01*
X145035500Y-146860936D01*
X145015498Y-146929057D01*
X145009463Y-146937639D01*
X144930649Y-147040352D01*
X144930646Y-147040355D01*
X144930645Y-147040358D01*
X144902708Y-147107802D01*
X144874771Y-147175247D01*
X144855715Y-147319999D01*
X144855715Y-147320000D01*
X144874771Y-147464752D01*
X144930644Y-147599641D01*
X144930649Y-147599649D01*
X145019525Y-147715474D01*
X145135350Y-147804350D01*
X145135357Y-147804355D01*
X145270246Y-147860228D01*
X145415000Y-147879285D01*
X145559754Y-147860228D01*
X145694643Y-147804355D01*
X145810474Y-147715474D01*
X145899355Y-147599643D01*
X145955228Y-147464754D01*
X145974285Y-147320000D01*
X145955228Y-147175246D01*
X145899355Y-147040358D01*
X145877666Y-147012092D01*
X145820537Y-146937639D01*
X145794937Y-146871419D01*
X145794500Y-146860936D01*
X145794500Y-135079063D01*
X145814502Y-135010942D01*
X145820538Y-135002359D01*
X145899350Y-134899649D01*
X145899355Y-134899643D01*
X145955228Y-134764754D01*
X145974285Y-134620000D01*
X145968279Y-134574383D01*
X145955228Y-134475247D01*
X145954513Y-134473521D01*
X145899355Y-134340358D01*
X145810474Y-134224526D01*
X145810472Y-134224524D01*
X145810471Y-134224523D01*
X145694649Y-134135649D01*
X145694641Y-134135644D01*
X145559752Y-134079771D01*
X145415000Y-134060715D01*
X145270247Y-134079771D01*
X145202802Y-134107708D01*
X145135358Y-134135645D01*
X145135357Y-134135646D01*
X145135356Y-134135646D01*
X145019526Y-134224526D01*
X144930646Y-134340356D01*
X144930645Y-134340358D01*
X144914028Y-134380474D01*
X144874771Y-134475247D01*
X144855715Y-134619999D01*
X142716694Y-134619999D01*
X145002642Y-132334050D01*
X145002652Y-132334043D01*
X145083670Y-132253025D01*
X145083676Y-132253019D01*
X145133638Y-132166482D01*
X145139103Y-132146084D01*
X145159501Y-132069962D01*
X145159501Y-131970038D01*
X145159501Y-131962321D01*
X145159500Y-131962303D01*
X145159500Y-130159063D01*
X145179502Y-130090942D01*
X145185538Y-130082359D01*
X145264350Y-129979649D01*
X145264355Y-129979643D01*
X145320228Y-129844754D01*
X145339285Y-129700000D01*
X145320228Y-129555246D01*
X145264355Y-129420358D01*
X145175474Y-129304526D01*
X145175472Y-129304524D01*
X145175471Y-129304523D01*
X145059649Y-129215649D01*
X145059641Y-129215644D01*
X144924752Y-129159771D01*
X144780000Y-129140715D01*
X144635247Y-129159771D01*
X144567802Y-129187708D01*
X144500358Y-129215645D01*
X144500357Y-129215646D01*
X144500356Y-129215646D01*
X144384526Y-129304526D01*
X144295646Y-129420356D01*
X144295645Y-129420358D01*
X144269986Y-129482303D01*
X144239771Y-129555247D01*
X144220715Y-129699999D01*
X144220715Y-129700000D01*
X144239771Y-129844752D01*
X144295644Y-129979641D01*
X144295649Y-129979649D01*
X144374462Y-130082359D01*
X144400063Y-130148579D01*
X144400500Y-130159063D01*
X144400500Y-131810615D01*
X144380498Y-131878736D01*
X144363595Y-131899710D01*
X142863343Y-133399962D01*
X141371983Y-134891322D01*
X141371981Y-134891324D01*
X141340290Y-134923015D01*
X141301325Y-134961979D01*
X141301321Y-134961984D01*
X141251361Y-135048519D01*
X141247068Y-135064542D01*
X141225499Y-135145034D01*
X141225499Y-135255112D01*
X141225500Y-135255125D01*
X141225500Y-148591000D01*
X141205498Y-148659121D01*
X141151842Y-148705614D01*
X141099500Y-148717000D01*
X139570500Y-148717000D01*
X139502379Y-148696998D01*
X139455886Y-148643342D01*
X139444500Y-148591000D01*
X139444500Y-133559384D01*
X139464502Y-133491263D01*
X139481400Y-133470293D01*
X139922643Y-133029049D01*
X139922653Y-133029042D01*
X140003670Y-132948025D01*
X140003676Y-132948019D01*
X140051025Y-132866008D01*
X140053639Y-132861481D01*
X140079501Y-132764962D01*
X140079501Y-132665038D01*
X140079501Y-132657321D01*
X140079500Y-132657303D01*
X140079500Y-128534737D01*
X140099502Y-128466616D01*
X140153158Y-128420123D01*
X140223432Y-128410019D01*
X140285433Y-128437337D01*
X140381317Y-128516027D01*
X140564508Y-128613945D01*
X140763282Y-128674242D01*
X140763286Y-128674242D01*
X140763288Y-128674243D01*
X140969997Y-128694602D01*
X140970000Y-128694602D01*
X140970003Y-128694602D01*
X141176711Y-128674243D01*
X141176712Y-128674242D01*
X141176718Y-128674242D01*
X141375492Y-128613945D01*
X141558683Y-128516027D01*
X141654566Y-128437337D01*
X141719914Y-128409584D01*
X141789892Y-128421566D01*
X141842284Y-128469478D01*
X141860500Y-128534737D01*
X141860500Y-132250615D01*
X141840498Y-132318736D01*
X141823595Y-132339710D01*
X140959789Y-133203516D01*
X140101983Y-134061322D01*
X140101981Y-134061324D01*
X140083534Y-134079771D01*
X140031325Y-134131979D01*
X140031321Y-134131984D01*
X139981361Y-134218519D01*
X139977068Y-134234542D01*
X139955499Y-134315034D01*
X139955499Y-134425112D01*
X139955500Y-134425125D01*
X139955500Y-146860936D01*
X139935498Y-146929057D01*
X139929463Y-146937639D01*
X139850649Y-147040352D01*
X139850646Y-147040355D01*
X139850645Y-147040358D01*
X139822708Y-147107802D01*
X139794771Y-147175247D01*
X139775715Y-147319999D01*
X139775715Y-147320000D01*
X139794771Y-147464752D01*
X139850644Y-147599641D01*
X139850649Y-147599649D01*
X139939525Y-147715474D01*
X140055350Y-147804350D01*
X140055357Y-147804355D01*
X140190246Y-147860228D01*
X140335000Y-147879285D01*
X140479754Y-147860228D01*
X140614643Y-147804355D01*
X140730474Y-147715474D01*
X140819355Y-147599643D01*
X140875228Y-147464754D01*
X140894285Y-147320000D01*
X140875228Y-147175246D01*
X140819355Y-147040358D01*
X140797666Y-147012092D01*
X140740537Y-146937639D01*
X140714937Y-146871419D01*
X140714500Y-146860936D01*
X140714500Y-134574383D01*
X140734502Y-134506262D01*
X140751400Y-134485293D01*
X142462642Y-132774050D01*
X142462652Y-132774043D01*
X142543670Y-132693025D01*
X142543676Y-132693019D01*
X142593638Y-132606482D01*
X142605959Y-132560500D01*
X142619501Y-132509962D01*
X142619501Y-132410038D01*
X142619501Y-132402321D01*
X142619500Y-132402303D01*
X142619500Y-128534737D01*
X142639502Y-128466616D01*
X142693158Y-128420123D01*
X142763432Y-128410019D01*
X142825433Y-128437337D01*
X142921317Y-128516027D01*
X143104508Y-128613945D01*
X143303282Y-128674242D01*
X143303286Y-128674242D01*
X143303288Y-128674243D01*
X143509997Y-128694602D01*
X143510000Y-128694602D01*
X143510003Y-128694602D01*
X143716711Y-128674243D01*
X143716712Y-128674242D01*
X143716718Y-128674242D01*
X143915492Y-128613945D01*
X144098683Y-128516027D01*
X144098684Y-128516025D01*
X144098686Y-128516025D01*
X144098686Y-128516024D01*
X144259252Y-128384252D01*
X144391027Y-128223683D01*
X144488945Y-128040492D01*
X144549242Y-127841718D01*
X144550288Y-127831104D01*
X144569602Y-127635003D01*
X144569602Y-127634996D01*
X144549243Y-127428288D01*
X144549242Y-127428286D01*
X144549242Y-127428282D01*
X144488945Y-127229508D01*
X144391027Y-127046317D01*
X144391025Y-127046313D01*
X144259252Y-126885747D01*
X144098686Y-126753975D01*
X144098686Y-126753974D01*
X143915492Y-126656055D01*
X143826926Y-126629189D01*
X143716718Y-126595758D01*
X143716717Y-126595757D01*
X143716711Y-126595756D01*
X143510003Y-126575398D01*
X143509997Y-126575398D01*
X143303288Y-126595756D01*
X143104507Y-126656055D01*
X142921316Y-126753973D01*
X142825433Y-126832662D01*
X142760086Y-126860415D01*
X142690107Y-126848433D01*
X142637716Y-126800520D01*
X142619500Y-126735262D01*
X142619500Y-121744063D01*
X142639502Y-121675942D01*
X142645538Y-121667359D01*
X142724350Y-121564649D01*
X142724355Y-121564643D01*
X142780228Y-121429754D01*
X142799285Y-121285000D01*
X142780228Y-121140246D01*
X142724355Y-121005358D01*
X142635474Y-120889526D01*
X142635472Y-120889524D01*
X142635471Y-120889523D01*
X142519649Y-120800649D01*
X142519641Y-120800644D01*
X142384752Y-120744771D01*
X142240000Y-120725715D01*
X142095247Y-120744771D01*
X142027802Y-120772708D01*
X141960358Y-120800645D01*
X141960357Y-120800646D01*
X141960356Y-120800646D01*
X141844526Y-120889526D01*
X141755646Y-121005356D01*
X141755645Y-121005358D01*
X141739028Y-121045474D01*
X141699771Y-121140247D01*
X141680715Y-121284999D01*
X141680715Y-121285000D01*
X141699771Y-121429752D01*
X141755644Y-121564641D01*
X141755649Y-121564649D01*
X141834462Y-121667359D01*
X141860063Y-121733579D01*
X141860500Y-121744063D01*
X141860500Y-126735262D01*
X141840498Y-126803383D01*
X141786842Y-126849876D01*
X141716568Y-126859980D01*
X141654567Y-126832662D01*
X141558683Y-126753973D01*
X141375492Y-126656055D01*
X141286926Y-126629189D01*
X141176718Y-126595758D01*
X141176717Y-126595757D01*
X141176711Y-126595756D01*
X140970003Y-126575398D01*
X140969997Y-126575398D01*
X140763288Y-126595756D01*
X140564507Y-126656055D01*
X140381316Y-126753973D01*
X140285433Y-126832662D01*
X140220086Y-126860415D01*
X140150107Y-126848433D01*
X140097716Y-126800520D01*
X140079500Y-126735262D01*
X140079500Y-121109063D01*
X140099502Y-121040942D01*
X140105538Y-121032359D01*
X140184350Y-120929649D01*
X140184355Y-120929643D01*
X140240228Y-120794754D01*
X140259285Y-120650000D01*
X140240228Y-120505246D01*
X140184355Y-120370358D01*
X140095474Y-120254526D01*
X140095472Y-120254524D01*
X140095471Y-120254523D01*
X139979649Y-120165649D01*
X139979641Y-120165644D01*
X139844752Y-120109771D01*
X139700000Y-120090715D01*
X139555247Y-120109771D01*
X139487802Y-120137708D01*
X139420358Y-120165645D01*
X139420357Y-120165646D01*
X139420356Y-120165646D01*
X139304526Y-120254526D01*
X139215646Y-120370356D01*
X139215645Y-120370358D01*
X139199028Y-120410474D01*
X139159771Y-120505247D01*
X139140715Y-120649999D01*
X139140715Y-120650000D01*
X139159771Y-120794752D01*
X139215644Y-120929641D01*
X139215649Y-120929649D01*
X139294462Y-121032359D01*
X139320063Y-121098579D01*
X139320500Y-121109063D01*
X139320500Y-126735262D01*
X139300498Y-126803383D01*
X139246842Y-126849876D01*
X139176568Y-126859980D01*
X139114567Y-126832662D01*
X139018683Y-126753973D01*
X138835492Y-126656055D01*
X138746926Y-126629189D01*
X138636718Y-126595758D01*
X138636717Y-126595757D01*
X138636711Y-126595756D01*
X138430003Y-126575398D01*
X138429997Y-126575398D01*
X138223288Y-126595756D01*
X138024507Y-126656055D01*
X137841316Y-126753973D01*
X137745433Y-126832662D01*
X137680086Y-126860415D01*
X137610107Y-126848433D01*
X137557716Y-126800520D01*
X137539500Y-126735262D01*
X137539500Y-120474063D01*
X137559502Y-120405942D01*
X137565538Y-120397359D01*
X137644350Y-120294649D01*
X137644355Y-120294643D01*
X137700228Y-120159754D01*
X137719285Y-120015000D01*
X137700228Y-119870246D01*
X137644355Y-119735358D01*
X137555474Y-119619526D01*
X137555472Y-119619524D01*
X137555471Y-119619523D01*
X137439649Y-119530649D01*
X137439641Y-119530644D01*
X137304752Y-119474771D01*
X137160000Y-119455715D01*
X137015247Y-119474771D01*
X136947802Y-119502708D01*
X136880358Y-119530645D01*
X136880357Y-119530646D01*
X136880356Y-119530646D01*
X136764526Y-119619526D01*
X136675646Y-119735356D01*
X136675645Y-119735358D01*
X136659028Y-119775474D01*
X136619771Y-119870247D01*
X136600715Y-120014999D01*
X136600715Y-120015000D01*
X136619771Y-120159752D01*
X136675644Y-120294641D01*
X136675649Y-120294649D01*
X136754462Y-120397359D01*
X136780063Y-120463579D01*
X136780500Y-120474063D01*
X136780500Y-126735262D01*
X136760498Y-126803383D01*
X136706842Y-126849876D01*
X136636568Y-126859980D01*
X136574567Y-126832662D01*
X136478683Y-126753973D01*
X136295492Y-126656055D01*
X136206926Y-126629189D01*
X136096718Y-126595758D01*
X136096717Y-126595757D01*
X136096711Y-126595756D01*
X135890003Y-126575398D01*
X135889997Y-126575398D01*
X135683288Y-126595756D01*
X135484507Y-126656055D01*
X135301313Y-126753974D01*
X135301313Y-126753975D01*
X135140747Y-126885747D01*
X135008975Y-127046313D01*
X135008974Y-127046313D01*
X134911054Y-127229508D01*
X134911052Y-127229512D01*
X134871578Y-127359644D01*
X134832663Y-127419025D01*
X134767822Y-127447941D01*
X134697641Y-127437210D01*
X134644402Y-127390240D01*
X134629297Y-127355679D01*
X134583813Y-127185931D01*
X134583811Y-127185926D01*
X134487087Y-126978501D01*
X134355815Y-126791025D01*
X134355810Y-126791019D01*
X134193980Y-126629189D01*
X134193974Y-126629184D01*
X134006498Y-126497912D01*
X133799073Y-126401188D01*
X133799071Y-126401187D01*
X133604000Y-126348917D01*
X133604000Y-127323314D01*
X133595606Y-127314920D01*
X133504394Y-127262259D01*
X133402661Y-127235000D01*
X133297339Y-127235000D01*
X133195606Y-127262259D01*
X133104394Y-127314920D01*
X133096000Y-127323314D01*
X133096000Y-126348917D01*
X133095999Y-126348917D01*
X132917439Y-126396763D01*
X132846462Y-126395073D01*
X132787666Y-126355279D01*
X132759718Y-126290015D01*
X132771491Y-126220001D01*
X132795729Y-126185963D01*
X134842642Y-124139050D01*
X134842652Y-124139043D01*
X134923670Y-124058025D01*
X134923676Y-124058019D01*
X134973638Y-123971482D01*
X134999500Y-123874962D01*
X134999500Y-119839063D01*
X135019502Y-119770942D01*
X135025538Y-119762359D01*
X135104350Y-119659649D01*
X135104355Y-119659643D01*
X135160228Y-119524754D01*
X135179285Y-119380000D01*
X135160228Y-119235246D01*
X135104355Y-119100358D01*
X135015474Y-118984526D01*
X135015472Y-118984524D01*
X135015471Y-118984523D01*
X134899649Y-118895649D01*
X134899641Y-118895644D01*
X134764752Y-118839771D01*
X134620000Y-118820715D01*
X134475247Y-118839771D01*
X134407802Y-118867708D01*
X134340358Y-118895645D01*
X134340357Y-118895646D01*
X134340356Y-118895646D01*
X134224526Y-118984526D01*
X134135646Y-119100356D01*
X134135645Y-119100358D01*
X134135407Y-119100933D01*
X134079771Y-119235247D01*
X134060715Y-119379999D01*
X134060715Y-119380000D01*
X134079771Y-119524752D01*
X134135644Y-119659641D01*
X134135649Y-119659649D01*
X134214462Y-119762359D01*
X134240063Y-119828579D01*
X134240500Y-119839063D01*
X134240500Y-123615615D01*
X134220498Y-123683736D01*
X134203595Y-123704710D01*
X131846983Y-126061322D01*
X131846981Y-126061324D01*
X131811653Y-126096652D01*
X131776325Y-126131979D01*
X131776321Y-126131984D01*
X131726361Y-126218518D01*
X131722317Y-126233613D01*
X131685365Y-126294235D01*
X131621504Y-126325256D01*
X131600611Y-126327000D01*
X131064000Y-126327000D01*
X131064000Y-127323314D01*
X131055606Y-127314920D01*
X130964394Y-127262259D01*
X130862661Y-127235000D01*
X130757339Y-127235000D01*
X130655606Y-127262259D01*
X130564394Y-127314920D01*
X130556000Y-127323314D01*
X130556000Y-126327000D01*
X129961402Y-126327000D01*
X129900906Y-126333505D01*
X129764035Y-126384555D01*
X129764034Y-126384555D01*
X129647095Y-126472095D01*
X129559555Y-126589034D01*
X129559555Y-126589035D01*
X129508505Y-126725906D01*
X129502000Y-126786402D01*
X129502000Y-127381000D01*
X130498314Y-127381000D01*
X130489920Y-127389394D01*
X130437259Y-127480606D01*
X130410000Y-127582339D01*
X130410000Y-127687661D01*
X130437259Y-127789394D01*
X130489920Y-127880606D01*
X130498314Y-127889000D01*
X129502000Y-127889000D01*
X129502000Y-128483597D01*
X129508505Y-128544093D01*
X129559555Y-128680964D01*
X129559555Y-128680965D01*
X129647095Y-128797904D01*
X129764034Y-128885444D01*
X129900906Y-128936494D01*
X129961402Y-128942999D01*
X129961415Y-128943000D01*
X130556000Y-128943000D01*
X130556000Y-127946686D01*
X130564394Y-127955080D01*
X130655606Y-128007741D01*
X130757339Y-128035000D01*
X130862661Y-128035000D01*
X130964394Y-128007741D01*
X131055606Y-127955080D01*
X131064000Y-127946686D01*
X131064000Y-128943000D01*
X131574500Y-128943000D01*
X131642621Y-128963002D01*
X131689114Y-129016658D01*
X131700500Y-129069000D01*
X131700500Y-130122303D01*
X131700499Y-130122321D01*
X131700499Y-130229965D01*
X131720896Y-130306084D01*
X131720897Y-130306086D01*
X131726361Y-130326480D01*
X131776321Y-130413015D01*
X131776329Y-130413025D01*
X131854156Y-130490852D01*
X131854170Y-130490864D01*
X133483595Y-132120289D01*
X133517621Y-132182601D01*
X133520500Y-132209384D01*
X133520500Y-137652303D01*
X133520499Y-137652321D01*
X133520499Y-137759962D01*
X133529887Y-137794996D01*
X133529887Y-137794999D01*
X133546362Y-137856483D01*
X133596321Y-137943015D01*
X133596329Y-137943025D01*
X133674156Y-138020852D01*
X133674170Y-138020864D01*
X136108595Y-140455289D01*
X136142621Y-140517601D01*
X136145500Y-140544384D01*
X136145500Y-148591000D01*
X136125498Y-148659121D01*
X136071842Y-148705614D01*
X136019500Y-148717000D01*
X129485500Y-148717000D01*
X129417379Y-148696998D01*
X129370886Y-148643342D01*
X129359500Y-148591000D01*
X129359500Y-146119999D01*
X129359501Y-146119986D01*
X129359501Y-145990165D01*
X129328527Y-145874567D01*
X129328525Y-145874564D01*
X129303238Y-145830768D01*
X129303235Y-145830763D01*
X129268694Y-145770934D01*
X129268687Y-145770925D01*
X129179681Y-145681919D01*
X129179658Y-145681898D01*
X128640879Y-145143119D01*
X128640867Y-145143105D01*
X128549076Y-145051314D01*
X128549066Y-145051306D01*
X128445431Y-144991473D01*
X128445424Y-144991471D01*
X128421002Y-144984927D01*
X128329836Y-144960499D01*
X128215500Y-144960499D01*
X128147379Y-144940497D01*
X128100886Y-144886841D01*
X128089500Y-144834499D01*
X128089500Y-142180165D01*
X128089500Y-142180164D01*
X128058527Y-142064569D01*
X128058525Y-142064566D01*
X128058525Y-142064564D01*
X127998693Y-141960933D01*
X127998685Y-141960923D01*
X127909681Y-141871919D01*
X127909658Y-141871898D01*
X123681405Y-137643645D01*
X123647379Y-137581333D01*
X123644500Y-137554550D01*
X123644500Y-134484995D01*
X124219650Y-134484995D01*
X124219650Y-134485004D01*
X124239024Y-134768260D01*
X124239025Y-134768266D01*
X124239026Y-134768274D01*
X124266325Y-134899641D01*
X124296793Y-135046265D01*
X124296795Y-135046273D01*
X124391881Y-135313820D01*
X124522505Y-135565909D01*
X124522514Y-135565924D01*
X124686246Y-135797880D01*
X124686249Y-135797884D01*
X124880051Y-136005395D01*
X125100303Y-136184583D01*
X125342904Y-136332112D01*
X125603333Y-136445233D01*
X125876740Y-136521838D01*
X125963517Y-136533765D01*
X126158018Y-136560499D01*
X126158032Y-136560500D01*
X126441968Y-136560500D01*
X126441981Y-136560499D01*
X126607556Y-136537740D01*
X126723260Y-136521838D01*
X126996667Y-136445233D01*
X127257096Y-136332112D01*
X127499697Y-136184583D01*
X127719949Y-136005395D01*
X127913751Y-135797884D01*
X128077491Y-135565916D01*
X128207442Y-135315125D01*
X128208118Y-135313820D01*
X128208118Y-135313819D01*
X128208121Y-135313814D01*
X128303205Y-135046272D01*
X128360974Y-134768274D01*
X128365937Y-134695715D01*
X128380350Y-134485004D01*
X128380350Y-134484995D01*
X128360975Y-134201739D01*
X128360974Y-134201733D01*
X128360974Y-134201726D01*
X128303205Y-133923728D01*
X128208121Y-133656186D01*
X128208119Y-133656182D01*
X128208118Y-133656179D01*
X128077494Y-133404090D01*
X128077491Y-133404084D01*
X128074581Y-133399962D01*
X127935918Y-133203520D01*
X127913751Y-133172116D01*
X127719949Y-132964605D01*
X127499697Y-132785417D01*
X127257096Y-132637888D01*
X127257097Y-132637888D01*
X127257093Y-132637886D01*
X126996667Y-132524767D01*
X126843972Y-132481984D01*
X126723260Y-132448162D01*
X126723259Y-132448161D01*
X126723256Y-132448161D01*
X126441981Y-132409500D01*
X126441968Y-132409500D01*
X126158032Y-132409500D01*
X126158018Y-132409500D01*
X125876743Y-132448161D01*
X125603332Y-132524767D01*
X125342906Y-132637886D01*
X125184175Y-132734413D01*
X125117228Y-132775125D01*
X125100300Y-132785419D01*
X124962410Y-132897601D01*
X124892444Y-132954523D01*
X124880056Y-132964601D01*
X124880048Y-132964608D01*
X124686246Y-133172119D01*
X124522514Y-133404075D01*
X124522505Y-133404090D01*
X124391881Y-133656179D01*
X124296795Y-133923726D01*
X124296793Y-133923734D01*
X124268202Y-134061322D01*
X124253624Y-134131480D01*
X124239025Y-134201733D01*
X124239024Y-134201739D01*
X124219650Y-134484995D01*
X123644500Y-134484995D01*
X123644500Y-123027733D01*
X123664502Y-122959612D01*
X123718158Y-122913119D01*
X123788432Y-122903015D01*
X123853012Y-122932509D01*
X123884695Y-122974483D01*
X123957913Y-123131501D01*
X124007899Y-123202888D01*
X124695000Y-122515788D01*
X124695000Y-122527661D01*
X124722259Y-122629394D01*
X124774920Y-122720606D01*
X124849394Y-122795080D01*
X124940606Y-122847741D01*
X125042339Y-122875000D01*
X125054210Y-122875000D01*
X124367110Y-123562098D01*
X124367110Y-123562100D01*
X124438498Y-123612086D01*
X124645926Y-123708811D01*
X124645931Y-123708813D01*
X124866999Y-123768048D01*
X124866995Y-123768048D01*
X125095000Y-123787995D01*
X125323002Y-123768048D01*
X125544068Y-123708813D01*
X125544073Y-123708811D01*
X125751497Y-123612088D01*
X125822888Y-123562099D01*
X125822888Y-123562097D01*
X125135791Y-122875000D01*
X125147661Y-122875000D01*
X125249394Y-122847741D01*
X125340606Y-122795080D01*
X125415080Y-122720606D01*
X125467741Y-122629394D01*
X125495000Y-122527661D01*
X125495000Y-122515791D01*
X126182097Y-123202888D01*
X126182099Y-123202888D01*
X126232088Y-123131497D01*
X126328811Y-122924073D01*
X126328813Y-122924068D01*
X126388048Y-122703002D01*
X126407995Y-122475000D01*
X126388048Y-122246997D01*
X126328813Y-122025931D01*
X126328811Y-122025926D01*
X126232086Y-121818498D01*
X126182100Y-121747110D01*
X126182098Y-121747110D01*
X125495000Y-122434208D01*
X125495000Y-122422339D01*
X125467741Y-122320606D01*
X125415080Y-122229394D01*
X125340606Y-122154920D01*
X125249394Y-122102259D01*
X125147661Y-122075000D01*
X125135790Y-122075000D01*
X125822888Y-121387899D01*
X125822888Y-121387898D01*
X125751501Y-121337913D01*
X125544073Y-121241188D01*
X125544068Y-121241186D01*
X125323000Y-121181951D01*
X125323004Y-121181951D01*
X125095000Y-121162004D01*
X124866997Y-121181951D01*
X124645931Y-121241186D01*
X124645926Y-121241188D01*
X124438500Y-121337913D01*
X124367109Y-121387900D01*
X125054209Y-122075000D01*
X125042339Y-122075000D01*
X124940606Y-122102259D01*
X124849394Y-122154920D01*
X124774920Y-122229394D01*
X124722259Y-122320606D01*
X124695000Y-122422339D01*
X124695000Y-122434209D01*
X124007900Y-121747109D01*
X123957913Y-121818500D01*
X123884695Y-121975516D01*
X123837777Y-122028801D01*
X123769500Y-122048262D01*
X123701540Y-122027720D01*
X123655475Y-121973697D01*
X123644500Y-121922266D01*
X123644500Y-119620449D01*
X123664502Y-119552328D01*
X123681400Y-119531358D01*
X124689284Y-118523474D01*
X124751594Y-118489451D01*
X124814950Y-118491996D01*
X124888282Y-118514242D01*
X124888287Y-118514242D01*
X124888289Y-118514243D01*
X125094997Y-118534602D01*
X125095000Y-118534602D01*
X125095003Y-118534602D01*
X125301711Y-118514243D01*
X125301712Y-118514242D01*
X125301718Y-118514242D01*
X125500492Y-118453945D01*
X125683683Y-118356027D01*
X125683684Y-118356025D01*
X125683686Y-118356025D01*
X125683686Y-118356024D01*
X125844252Y-118224252D01*
X125976027Y-118063683D01*
X126073945Y-117880492D01*
X126128682Y-117700042D01*
X126140139Y-117673618D01*
X126153525Y-117650434D01*
X126153526Y-117650433D01*
X126160168Y-117625645D01*
X126184500Y-117534836D01*
X126184500Y-117415164D01*
X126153527Y-117299569D01*
X126140135Y-117276374D01*
X126128683Y-117249959D01*
X126073945Y-117069508D01*
X125976027Y-116886317D01*
X125976025Y-116886313D01*
X125844252Y-116725747D01*
X125683686Y-116593975D01*
X125683686Y-116593974D01*
X125616102Y-116557849D01*
X125565455Y-116508096D01*
X125549500Y-116446728D01*
X125549500Y-115810450D01*
X125569502Y-115742329D01*
X125586405Y-115721355D01*
X128421355Y-112886405D01*
X128483667Y-112852379D01*
X128510450Y-112849500D01*
X129781729Y-112849500D01*
X129849850Y-112869502D01*
X129892851Y-112916104D01*
X129928974Y-112983686D01*
X130060747Y-113144252D01*
X130221313Y-113276024D01*
X130221313Y-113276025D01*
X130221317Y-113276027D01*
X130404508Y-113373945D01*
X130603282Y-113434242D01*
X130603286Y-113434242D01*
X130603288Y-113434243D01*
X130809997Y-113454602D01*
X130810000Y-113454602D01*
X130810003Y-113454602D01*
X131016711Y-113434243D01*
X131016712Y-113434242D01*
X131016718Y-113434242D01*
X131215492Y-113373945D01*
X131398683Y-113276027D01*
X131398684Y-113276025D01*
X131398686Y-113276025D01*
X131398686Y-113276024D01*
X131559252Y-113144252D01*
X131691027Y-112983683D01*
X131788945Y-112800492D01*
X131849242Y-112601718D01*
X131850122Y-112592789D01*
X131869602Y-112395003D01*
X131869602Y-112394996D01*
X132290398Y-112394996D01*
X132290398Y-112395003D01*
X132310756Y-112601711D01*
X132310757Y-112601717D01*
X132310758Y-112601718D01*
X132331579Y-112670355D01*
X132371055Y-112800492D01*
X132468974Y-112983686D01*
X132600747Y-113144252D01*
X132761313Y-113276024D01*
X132761313Y-113276025D01*
X132761317Y-113276027D01*
X132944508Y-113373945D01*
X133143282Y-113434242D01*
X133143286Y-113434242D01*
X133143288Y-113434243D01*
X133349997Y-113454602D01*
X133350000Y-113454602D01*
X133350003Y-113454602D01*
X133556711Y-113434243D01*
X133556712Y-113434242D01*
X133556718Y-113434242D01*
X133755492Y-113373945D01*
X133938683Y-113276027D01*
X133938684Y-113276025D01*
X133938686Y-113276025D01*
X133938686Y-113276024D01*
X134099252Y-113144252D01*
X134231027Y-112983683D01*
X134328945Y-112800492D01*
X134368421Y-112670353D01*
X134407335Y-112610975D01*
X134472176Y-112582059D01*
X134542357Y-112592789D01*
X134595596Y-112639758D01*
X134610702Y-112674319D01*
X134656187Y-112844071D01*
X134656188Y-112844073D01*
X134752912Y-113051498D01*
X134884184Y-113238974D01*
X134884189Y-113238980D01*
X135046019Y-113400810D01*
X135046025Y-113400815D01*
X135233501Y-113532087D01*
X135440926Y-113628811D01*
X135440931Y-113628813D01*
X135636000Y-113681081D01*
X135636000Y-112706686D01*
X135644394Y-112715080D01*
X135735606Y-112767741D01*
X135837339Y-112795000D01*
X135942661Y-112795000D01*
X136044394Y-112767741D01*
X136135606Y-112715080D01*
X136144000Y-112706686D01*
X136144000Y-113681081D01*
X136339068Y-113628813D01*
X136339073Y-113628811D01*
X136546498Y-113532087D01*
X136733974Y-113400815D01*
X136733980Y-113400810D01*
X136895810Y-113238980D01*
X136895815Y-113238974D01*
X137027087Y-113051498D01*
X137123811Y-112844073D01*
X137123813Y-112844069D01*
X137169297Y-112674320D01*
X137206249Y-112613697D01*
X137270109Y-112582676D01*
X137340604Y-112591104D01*
X137395351Y-112636307D01*
X137411578Y-112670353D01*
X137425146Y-112715080D01*
X137451055Y-112800493D01*
X137548974Y-112983686D01*
X137680747Y-113144252D01*
X137841313Y-113276024D01*
X137841317Y-113276027D01*
X137983896Y-113352237D01*
X138034544Y-113401987D01*
X138050500Y-113463358D01*
X138050500Y-122095936D01*
X138030498Y-122164057D01*
X138024463Y-122172639D01*
X137945649Y-122275352D01*
X137945646Y-122275355D01*
X137945645Y-122275358D01*
X137917708Y-122342802D01*
X137889771Y-122410247D01*
X137870715Y-122554999D01*
X137870715Y-122555000D01*
X137889771Y-122699752D01*
X137945644Y-122834641D01*
X137945649Y-122834649D01*
X138034525Y-122950474D01*
X138150350Y-123039350D01*
X138150357Y-123039355D01*
X138285246Y-123095228D01*
X138430000Y-123114285D01*
X138574754Y-123095228D01*
X138709643Y-123039355D01*
X138825474Y-122950474D01*
X138914355Y-122834643D01*
X138970228Y-122699754D01*
X138989285Y-122555000D01*
X138970228Y-122410246D01*
X138914355Y-122275358D01*
X138879086Y-122229394D01*
X138835537Y-122172639D01*
X138809937Y-122106419D01*
X138809500Y-122095936D01*
X138809500Y-113463358D01*
X138829502Y-113395237D01*
X138876102Y-113352237D01*
X139018683Y-113276027D01*
X139179252Y-113144252D01*
X139311027Y-112983683D01*
X139408945Y-112800492D01*
X139469242Y-112601718D01*
X139470122Y-112592789D01*
X139489602Y-112395003D01*
X139489602Y-112394996D01*
X139910398Y-112394996D01*
X139910398Y-112395003D01*
X139930756Y-112601711D01*
X139930757Y-112601717D01*
X139930758Y-112601718D01*
X139951579Y-112670355D01*
X139991055Y-112800492D01*
X140088974Y-112983686D01*
X140220747Y-113144252D01*
X140381313Y-113276024D01*
X140381313Y-113276025D01*
X140381317Y-113276027D01*
X140564508Y-113373945D01*
X140763282Y-113434242D01*
X140763286Y-113434242D01*
X140763288Y-113434243D01*
X140969997Y-113454602D01*
X140970000Y-113454602D01*
X140970003Y-113454602D01*
X141176711Y-113434243D01*
X141176712Y-113434242D01*
X141176718Y-113434242D01*
X141375492Y-113373945D01*
X141558683Y-113276027D01*
X141558684Y-113276025D01*
X141558686Y-113276025D01*
X141558686Y-113276024D01*
X141719252Y-113144252D01*
X141851027Y-112983683D01*
X141948945Y-112800492D01*
X142009242Y-112601718D01*
X142010122Y-112592789D01*
X142029602Y-112395003D01*
X142029602Y-112394996D01*
X142450398Y-112394996D01*
X142450398Y-112395003D01*
X142470756Y-112601711D01*
X142470757Y-112601717D01*
X142470758Y-112601718D01*
X142491579Y-112670355D01*
X142531055Y-112800492D01*
X142628974Y-112983686D01*
X142760747Y-113144252D01*
X142921313Y-113276024D01*
X142921313Y-113276025D01*
X142921317Y-113276027D01*
X143104508Y-113373945D01*
X143303282Y-113434242D01*
X143303286Y-113434242D01*
X143303288Y-113434243D01*
X143509997Y-113454602D01*
X143510000Y-113454602D01*
X143510003Y-113454602D01*
X143716711Y-113434243D01*
X143716712Y-113434242D01*
X143716718Y-113434242D01*
X143915492Y-113373945D01*
X144098683Y-113276027D01*
X144098684Y-113276025D01*
X144098686Y-113276025D01*
X144098686Y-113276024D01*
X144259252Y-113144252D01*
X144391027Y-112983683D01*
X144488945Y-112800492D01*
X144549242Y-112601718D01*
X144550122Y-112592789D01*
X144569602Y-112395003D01*
X144569602Y-112394996D01*
X144990398Y-112394996D01*
X144990398Y-112395003D01*
X145010756Y-112601711D01*
X145010757Y-112601717D01*
X145010758Y-112601718D01*
X145031579Y-112670355D01*
X145071055Y-112800492D01*
X145168974Y-112983686D01*
X145300747Y-113144252D01*
X145461313Y-113276024D01*
X145461313Y-113276025D01*
X145461317Y-113276027D01*
X145644508Y-113373945D01*
X145843282Y-113434242D01*
X145843286Y-113434242D01*
X145843288Y-113434243D01*
X146049997Y-113454602D01*
X146050000Y-113454602D01*
X146050003Y-113454602D01*
X146256711Y-113434243D01*
X146256712Y-113434242D01*
X146256718Y-113434242D01*
X146455492Y-113373945D01*
X146638683Y-113276027D01*
X146638684Y-113276025D01*
X146638686Y-113276025D01*
X146638686Y-113276024D01*
X146799252Y-113144252D01*
X146931027Y-112983683D01*
X147028945Y-112800492D01*
X147089242Y-112601718D01*
X147090122Y-112592789D01*
X147109602Y-112395003D01*
X147109602Y-112394996D01*
X147530398Y-112394996D01*
X147530398Y-112395003D01*
X147550756Y-112601711D01*
X147550757Y-112601717D01*
X147550758Y-112601718D01*
X147571579Y-112670355D01*
X147611055Y-112800492D01*
X147708974Y-112983686D01*
X147840747Y-113144252D01*
X148001313Y-113276024D01*
X148001313Y-113276025D01*
X148001317Y-113276027D01*
X148184508Y-113373945D01*
X148383282Y-113434242D01*
X148383286Y-113434242D01*
X148383288Y-113434243D01*
X148589997Y-113454602D01*
X148590000Y-113454602D01*
X148590003Y-113454602D01*
X148796711Y-113434243D01*
X148796712Y-113434242D01*
X148796718Y-113434242D01*
X148995492Y-113373945D01*
X149178683Y-113276027D01*
X149178684Y-113276025D01*
X149178686Y-113276025D01*
X149178686Y-113276024D01*
X149339252Y-113144252D01*
X149471027Y-112983683D01*
X149568945Y-112800492D01*
X149629242Y-112601718D01*
X149630122Y-112592789D01*
X149649602Y-112395003D01*
X149649602Y-112394996D01*
X150070398Y-112394996D01*
X150070398Y-112395003D01*
X150090756Y-112601711D01*
X150090757Y-112601717D01*
X150090758Y-112601718D01*
X150111579Y-112670355D01*
X150151055Y-112800492D01*
X150248974Y-112983686D01*
X150380747Y-113144252D01*
X150541313Y-113276024D01*
X150541313Y-113276025D01*
X150541317Y-113276027D01*
X150724508Y-113373945D01*
X150923282Y-113434242D01*
X150923286Y-113434242D01*
X150923288Y-113434243D01*
X151129997Y-113454602D01*
X151130000Y-113454602D01*
X151130003Y-113454602D01*
X151336711Y-113434243D01*
X151336712Y-113434242D01*
X151336718Y-113434242D01*
X151535492Y-113373945D01*
X151718683Y-113276027D01*
X151718684Y-113276025D01*
X151718686Y-113276025D01*
X151718686Y-113276024D01*
X151879252Y-113144252D01*
X152011027Y-112983683D01*
X152108945Y-112800492D01*
X152169242Y-112601718D01*
X152170122Y-112592789D01*
X152189602Y-112395003D01*
X152189602Y-112394996D01*
X152610398Y-112394996D01*
X152610398Y-112395003D01*
X152630756Y-112601711D01*
X152630757Y-112601717D01*
X152630758Y-112601718D01*
X152651579Y-112670355D01*
X152691055Y-112800492D01*
X152788974Y-112983686D01*
X152920747Y-113144252D01*
X153081313Y-113276024D01*
X153081313Y-113276025D01*
X153081317Y-113276027D01*
X153264508Y-113373945D01*
X153463282Y-113434242D01*
X153463286Y-113434242D01*
X153463288Y-113434243D01*
X153669997Y-113454602D01*
X153670000Y-113454602D01*
X153670003Y-113454602D01*
X153876711Y-113434243D01*
X153876712Y-113434242D01*
X153876718Y-113434242D01*
X154075492Y-113373945D01*
X154258683Y-113276027D01*
X154258684Y-113276025D01*
X154258686Y-113276025D01*
X154258686Y-113276024D01*
X154419252Y-113144252D01*
X154551027Y-112983683D01*
X154648945Y-112800492D01*
X154709242Y-112601718D01*
X154710122Y-112592789D01*
X154729602Y-112395003D01*
X154729602Y-112394996D01*
X155150398Y-112394996D01*
X155150398Y-112395003D01*
X155170756Y-112601711D01*
X155170757Y-112601717D01*
X155170758Y-112601718D01*
X155191579Y-112670355D01*
X155231055Y-112800492D01*
X155328974Y-112983686D01*
X155460747Y-113144252D01*
X155621313Y-113276024D01*
X155621313Y-113276025D01*
X155621317Y-113276027D01*
X155804508Y-113373945D01*
X156003282Y-113434242D01*
X156003286Y-113434242D01*
X156003288Y-113434243D01*
X156209997Y-113454602D01*
X156210000Y-113454602D01*
X156210003Y-113454602D01*
X156416711Y-113434243D01*
X156416712Y-113434242D01*
X156416718Y-113434242D01*
X156615492Y-113373945D01*
X156798683Y-113276027D01*
X156798684Y-113276025D01*
X156798686Y-113276025D01*
X156798686Y-113276024D01*
X156959252Y-113144252D01*
X157091027Y-112983683D01*
X157188945Y-112800492D01*
X157249242Y-112601718D01*
X157250122Y-112592789D01*
X157269602Y-112395003D01*
X157269602Y-112394996D01*
X157690398Y-112394996D01*
X157690398Y-112395003D01*
X157710756Y-112601711D01*
X157710757Y-112601717D01*
X157710758Y-112601718D01*
X157731579Y-112670355D01*
X157771055Y-112800492D01*
X157868974Y-112983686D01*
X158000747Y-113144252D01*
X158161313Y-113276024D01*
X158161317Y-113276027D01*
X158303896Y-113352237D01*
X158354544Y-113401987D01*
X158370500Y-113463358D01*
X158370500Y-118920936D01*
X158350498Y-118989057D01*
X158344463Y-118997639D01*
X158265649Y-119100352D01*
X158265646Y-119100355D01*
X158265645Y-119100358D01*
X158265407Y-119100933D01*
X158209771Y-119235247D01*
X158190715Y-119379999D01*
X158190715Y-119380000D01*
X158209771Y-119524752D01*
X158265644Y-119659641D01*
X158265649Y-119659649D01*
X158354525Y-119775474D01*
X158470350Y-119864350D01*
X158470357Y-119864355D01*
X158605246Y-119920228D01*
X158750000Y-119939285D01*
X158894754Y-119920228D01*
X159029643Y-119864355D01*
X159145474Y-119775474D01*
X159234355Y-119659643D01*
X159290228Y-119524754D01*
X159309285Y-119380000D01*
X159290228Y-119235246D01*
X159234355Y-119100358D01*
X159169863Y-119016310D01*
X159155537Y-118997639D01*
X159129937Y-118931419D01*
X159129500Y-118920936D01*
X159129500Y-113463358D01*
X159149502Y-113395237D01*
X159196102Y-113352237D01*
X159338683Y-113276027D01*
X159499252Y-113144252D01*
X159631027Y-112983683D01*
X159728945Y-112800492D01*
X159789242Y-112601718D01*
X159790122Y-112592789D01*
X159809602Y-112395003D01*
X159809602Y-112394996D01*
X160230398Y-112394996D01*
X160230398Y-112395003D01*
X160250756Y-112601711D01*
X160250757Y-112601717D01*
X160250758Y-112601718D01*
X160271579Y-112670355D01*
X160311055Y-112800492D01*
X160408974Y-112983686D01*
X160540747Y-113144252D01*
X160701313Y-113276024D01*
X160701317Y-113276027D01*
X160843896Y-113352237D01*
X160894544Y-113401987D01*
X160910500Y-113463358D01*
X160910500Y-119555936D01*
X160890498Y-119624057D01*
X160884463Y-119632639D01*
X160805649Y-119735352D01*
X160805646Y-119735355D01*
X160805645Y-119735358D01*
X160789028Y-119775474D01*
X160749771Y-119870247D01*
X160730715Y-120014999D01*
X160730715Y-120015000D01*
X160749771Y-120159752D01*
X160805644Y-120294641D01*
X160805649Y-120294649D01*
X160894525Y-120410474D01*
X161010350Y-120499350D01*
X161010357Y-120499355D01*
X161145246Y-120555228D01*
X161290000Y-120574285D01*
X161434754Y-120555228D01*
X161569643Y-120499355D01*
X161685474Y-120410474D01*
X161774355Y-120294643D01*
X161830228Y-120159754D01*
X161849285Y-120015000D01*
X161830228Y-119870246D01*
X161774355Y-119735358D01*
X161752666Y-119707092D01*
X161695537Y-119632639D01*
X161669937Y-119566419D01*
X161669500Y-119555936D01*
X161669500Y-113463358D01*
X161689502Y-113395237D01*
X161736102Y-113352237D01*
X161878683Y-113276027D01*
X162039252Y-113144252D01*
X162171027Y-112983683D01*
X162268945Y-112800492D01*
X162329242Y-112601718D01*
X162330122Y-112592789D01*
X162349602Y-112395003D01*
X162349602Y-112394996D01*
X162770398Y-112394996D01*
X162770398Y-112395003D01*
X162790756Y-112601711D01*
X162790757Y-112601717D01*
X162790758Y-112601718D01*
X162811579Y-112670355D01*
X162851055Y-112800492D01*
X162948974Y-112983686D01*
X163080747Y-113144252D01*
X163241313Y-113276024D01*
X163241317Y-113276027D01*
X163383896Y-113352237D01*
X163434544Y-113401987D01*
X163450500Y-113463358D01*
X163450500Y-120190936D01*
X163430498Y-120259057D01*
X163424463Y-120267639D01*
X163345649Y-120370352D01*
X163345646Y-120370355D01*
X163345645Y-120370358D01*
X163329028Y-120410474D01*
X163289771Y-120505247D01*
X163270715Y-120649999D01*
X163270715Y-120650000D01*
X163289771Y-120794752D01*
X163345644Y-120929641D01*
X163345649Y-120929649D01*
X163434525Y-121045474D01*
X163550350Y-121134350D01*
X163550357Y-121134355D01*
X163685246Y-121190228D01*
X163830000Y-121209285D01*
X163974754Y-121190228D01*
X164109643Y-121134355D01*
X164225474Y-121045474D01*
X164314355Y-120929643D01*
X164370228Y-120794754D01*
X164389285Y-120650000D01*
X164370228Y-120505246D01*
X164314355Y-120370358D01*
X164292666Y-120342092D01*
X164235537Y-120267639D01*
X164209937Y-120201419D01*
X164209500Y-120190936D01*
X164209500Y-113463358D01*
X164229502Y-113395237D01*
X164276102Y-113352237D01*
X164418683Y-113276027D01*
X164579252Y-113144252D01*
X164711027Y-112983683D01*
X164808945Y-112800492D01*
X164869242Y-112601718D01*
X164870122Y-112592789D01*
X164889602Y-112395003D01*
X164889602Y-112394996D01*
X164869243Y-112188288D01*
X164869242Y-112188286D01*
X164869242Y-112188282D01*
X164808945Y-111989508D01*
X164711027Y-111806317D01*
X164711025Y-111806313D01*
X164579252Y-111645747D01*
X164418686Y-111513975D01*
X164418686Y-111513974D01*
X164235492Y-111416055D01*
X164146926Y-111389189D01*
X164036718Y-111355758D01*
X164036717Y-111355757D01*
X164036711Y-111355756D01*
X163830003Y-111335398D01*
X163829997Y-111335398D01*
X163623288Y-111355756D01*
X163424507Y-111416055D01*
X163241313Y-111513974D01*
X163241313Y-111513975D01*
X163080747Y-111645747D01*
X162948975Y-111806313D01*
X162948974Y-111806313D01*
X162851055Y-111989507D01*
X162790756Y-112188288D01*
X162770398Y-112394996D01*
X162349602Y-112394996D01*
X162329243Y-112188288D01*
X162329242Y-112188286D01*
X162329242Y-112188282D01*
X162268945Y-111989508D01*
X162171027Y-111806317D01*
X162171025Y-111806313D01*
X162039252Y-111645747D01*
X161878686Y-111513975D01*
X161878686Y-111513974D01*
X161695492Y-111416055D01*
X161606926Y-111389189D01*
X161496718Y-111355758D01*
X161496717Y-111355757D01*
X161496711Y-111355756D01*
X161290003Y-111335398D01*
X161289997Y-111335398D01*
X161083288Y-111355756D01*
X160884507Y-111416055D01*
X160701313Y-111513974D01*
X160701313Y-111513975D01*
X160540747Y-111645747D01*
X160408975Y-111806313D01*
X160408974Y-111806313D01*
X160311055Y-111989507D01*
X160250756Y-112188288D01*
X160230398Y-112394996D01*
X159809602Y-112394996D01*
X159789243Y-112188288D01*
X159789242Y-112188286D01*
X159789242Y-112188282D01*
X159728945Y-111989508D01*
X159631027Y-111806317D01*
X159631025Y-111806313D01*
X159499252Y-111645747D01*
X159338686Y-111513975D01*
X159338686Y-111513974D01*
X159155492Y-111416055D01*
X159066926Y-111389189D01*
X158956718Y-111355758D01*
X158956717Y-111355757D01*
X158956711Y-111355756D01*
X158750003Y-111335398D01*
X158749997Y-111335398D01*
X158543288Y-111355756D01*
X158344507Y-111416055D01*
X158161313Y-111513974D01*
X158161313Y-111513975D01*
X158000747Y-111645747D01*
X157868975Y-111806313D01*
X157868974Y-111806313D01*
X157771055Y-111989507D01*
X157710756Y-112188288D01*
X157690398Y-112394996D01*
X157269602Y-112394996D01*
X157249243Y-112188288D01*
X157249242Y-112188286D01*
X157249242Y-112188282D01*
X157188945Y-111989508D01*
X157091027Y-111806317D01*
X157091025Y-111806313D01*
X156959252Y-111645747D01*
X156798686Y-111513975D01*
X156798686Y-111513974D01*
X156615492Y-111416055D01*
X156526926Y-111389189D01*
X156416718Y-111355758D01*
X156416717Y-111355757D01*
X156416711Y-111355756D01*
X156210003Y-111335398D01*
X156209997Y-111335398D01*
X156003288Y-111355756D01*
X155804507Y-111416055D01*
X155621313Y-111513974D01*
X155621313Y-111513975D01*
X155460747Y-111645747D01*
X155328975Y-111806313D01*
X155328974Y-111806313D01*
X155231055Y-111989507D01*
X155170756Y-112188288D01*
X155150398Y-112394996D01*
X154729602Y-112394996D01*
X154709243Y-112188288D01*
X154709242Y-112188286D01*
X154709242Y-112188282D01*
X154648945Y-111989508D01*
X154551027Y-111806317D01*
X154551025Y-111806313D01*
X154419252Y-111645747D01*
X154258686Y-111513975D01*
X154258686Y-111513974D01*
X154075492Y-111416055D01*
X153986926Y-111389189D01*
X153876718Y-111355758D01*
X153876717Y-111355757D01*
X153876711Y-111355756D01*
X153670003Y-111335398D01*
X153669997Y-111335398D01*
X153463288Y-111355756D01*
X153264507Y-111416055D01*
X153081313Y-111513974D01*
X153081313Y-111513975D01*
X152920747Y-111645747D01*
X152788975Y-111806313D01*
X152788974Y-111806313D01*
X152691055Y-111989507D01*
X152630756Y-112188288D01*
X152610398Y-112394996D01*
X152189602Y-112394996D01*
X152169243Y-112188288D01*
X152169242Y-112188286D01*
X152169242Y-112188282D01*
X152108945Y-111989508D01*
X152011027Y-111806317D01*
X152011025Y-111806313D01*
X151879252Y-111645747D01*
X151718686Y-111513975D01*
X151718686Y-111513974D01*
X151535492Y-111416055D01*
X151446926Y-111389189D01*
X151336718Y-111355758D01*
X151336717Y-111355757D01*
X151336711Y-111355756D01*
X151130003Y-111335398D01*
X151129997Y-111335398D01*
X150923288Y-111355756D01*
X150724507Y-111416055D01*
X150541313Y-111513974D01*
X150541313Y-111513975D01*
X150380747Y-111645747D01*
X150248975Y-111806313D01*
X150248974Y-111806313D01*
X150151055Y-111989507D01*
X150090756Y-112188288D01*
X150070398Y-112394996D01*
X149649602Y-112394996D01*
X149629243Y-112188288D01*
X149629242Y-112188286D01*
X149629242Y-112188282D01*
X149568945Y-111989508D01*
X149471027Y-111806317D01*
X149471025Y-111806313D01*
X149339252Y-111645747D01*
X149178686Y-111513975D01*
X149178686Y-111513974D01*
X148995492Y-111416055D01*
X148906926Y-111389189D01*
X148796718Y-111355758D01*
X148796717Y-111355757D01*
X148796711Y-111355756D01*
X148590003Y-111335398D01*
X148589997Y-111335398D01*
X148383288Y-111355756D01*
X148184507Y-111416055D01*
X148001313Y-111513974D01*
X148001313Y-111513975D01*
X147840747Y-111645747D01*
X147708975Y-111806313D01*
X147708974Y-111806313D01*
X147611055Y-111989507D01*
X147550756Y-112188288D01*
X147530398Y-112394996D01*
X147109602Y-112394996D01*
X147089243Y-112188288D01*
X147089242Y-112188286D01*
X147089242Y-112188282D01*
X147028945Y-111989508D01*
X146931027Y-111806317D01*
X146931025Y-111806313D01*
X146799252Y-111645747D01*
X146638686Y-111513975D01*
X146638686Y-111513974D01*
X146455492Y-111416055D01*
X146366926Y-111389189D01*
X146256718Y-111355758D01*
X146256717Y-111355757D01*
X146256711Y-111355756D01*
X146050003Y-111335398D01*
X146049997Y-111335398D01*
X145843288Y-111355756D01*
X145644507Y-111416055D01*
X145461313Y-111513974D01*
X145461313Y-111513975D01*
X145300747Y-111645747D01*
X145168975Y-111806313D01*
X145168974Y-111806313D01*
X145071055Y-111989507D01*
X145010756Y-112188288D01*
X144990398Y-112394996D01*
X144569602Y-112394996D01*
X144549243Y-112188288D01*
X144549242Y-112188286D01*
X144549242Y-112188282D01*
X144488945Y-111989508D01*
X144391027Y-111806317D01*
X144391025Y-111806313D01*
X144259252Y-111645747D01*
X144098686Y-111513975D01*
X144098686Y-111513974D01*
X143915492Y-111416055D01*
X143826926Y-111389189D01*
X143716718Y-111355758D01*
X143716717Y-111355757D01*
X143716711Y-111355756D01*
X143510003Y-111335398D01*
X143509997Y-111335398D01*
X143303288Y-111355756D01*
X143104507Y-111416055D01*
X142921313Y-111513974D01*
X142921313Y-111513975D01*
X142760747Y-111645747D01*
X142628975Y-111806313D01*
X142628974Y-111806313D01*
X142531055Y-111989507D01*
X142470756Y-112188288D01*
X142450398Y-112394996D01*
X142029602Y-112394996D01*
X142009243Y-112188288D01*
X142009242Y-112188286D01*
X142009242Y-112188282D01*
X141948945Y-111989508D01*
X141851027Y-111806317D01*
X141851025Y-111806313D01*
X141719252Y-111645747D01*
X141558686Y-111513975D01*
X141558686Y-111513974D01*
X141375492Y-111416055D01*
X141286926Y-111389189D01*
X141176718Y-111355758D01*
X141176717Y-111355757D01*
X141176711Y-111355756D01*
X140970003Y-111335398D01*
X140969997Y-111335398D01*
X140763288Y-111355756D01*
X140564507Y-111416055D01*
X140381313Y-111513974D01*
X140381313Y-111513975D01*
X140220747Y-111645747D01*
X140088975Y-111806313D01*
X140088974Y-111806313D01*
X139991055Y-111989507D01*
X139930756Y-112188288D01*
X139910398Y-112394996D01*
X139489602Y-112394996D01*
X139469243Y-112188288D01*
X139469242Y-112188286D01*
X139469242Y-112188282D01*
X139408945Y-111989508D01*
X139311027Y-111806317D01*
X139311025Y-111806313D01*
X139179252Y-111645747D01*
X139018686Y-111513975D01*
X139018686Y-111513974D01*
X138835492Y-111416055D01*
X138746926Y-111389189D01*
X138636718Y-111355758D01*
X138636717Y-111355757D01*
X138636711Y-111355756D01*
X138430003Y-111335398D01*
X138429997Y-111335398D01*
X138223288Y-111355756D01*
X138024507Y-111416055D01*
X137841313Y-111513974D01*
X137841313Y-111513975D01*
X137680747Y-111645747D01*
X137548975Y-111806313D01*
X137548974Y-111806313D01*
X137451054Y-111989508D01*
X137451052Y-111989512D01*
X137411578Y-112119644D01*
X137372663Y-112179025D01*
X137307822Y-112207941D01*
X137237641Y-112197210D01*
X137184402Y-112150240D01*
X137169297Y-112115679D01*
X137123813Y-111945931D01*
X137123811Y-111945926D01*
X137027087Y-111738501D01*
X136895815Y-111551025D01*
X136895810Y-111551019D01*
X136733980Y-111389189D01*
X136733974Y-111389184D01*
X136546498Y-111257912D01*
X136339073Y-111161188D01*
X136339071Y-111161187D01*
X136144000Y-111108917D01*
X136144000Y-112083314D01*
X136135606Y-112074920D01*
X136044394Y-112022259D01*
X135942661Y-111995000D01*
X135837339Y-111995000D01*
X135735606Y-112022259D01*
X135644394Y-112074920D01*
X135636000Y-112083314D01*
X135636000Y-111108917D01*
X135635999Y-111108917D01*
X135440928Y-111161187D01*
X135440926Y-111161188D01*
X135233501Y-111257912D01*
X135046025Y-111389184D01*
X135046019Y-111389189D01*
X134884189Y-111551019D01*
X134884184Y-111551025D01*
X134752912Y-111738501D01*
X134656188Y-111945926D01*
X134656187Y-111945928D01*
X134610702Y-112115680D01*
X134573750Y-112176302D01*
X134509889Y-112207324D01*
X134439395Y-112198895D01*
X134384648Y-112153692D01*
X134368422Y-112119647D01*
X134328945Y-111989508D01*
X134231027Y-111806317D01*
X134231025Y-111806313D01*
X134099252Y-111645747D01*
X133938686Y-111513975D01*
X133938686Y-111513974D01*
X133755492Y-111416055D01*
X133666926Y-111389189D01*
X133556718Y-111355758D01*
X133556717Y-111355757D01*
X133556711Y-111355756D01*
X133350003Y-111335398D01*
X133349997Y-111335398D01*
X133143288Y-111355756D01*
X132944507Y-111416055D01*
X132761313Y-111513974D01*
X132761313Y-111513975D01*
X132600747Y-111645747D01*
X132468975Y-111806313D01*
X132468974Y-111806313D01*
X132371055Y-111989507D01*
X132310756Y-112188288D01*
X132290398Y-112394996D01*
X131869602Y-112394996D01*
X131849243Y-112188288D01*
X131849242Y-112188286D01*
X131849242Y-112188282D01*
X131788945Y-111989508D01*
X131691027Y-111806317D01*
X131691025Y-111806313D01*
X131559252Y-111645747D01*
X131398686Y-111513975D01*
X131398686Y-111513974D01*
X131215492Y-111416055D01*
X131126926Y-111389189D01*
X131016718Y-111355758D01*
X131016717Y-111355757D01*
X131016711Y-111355756D01*
X130810003Y-111335398D01*
X130809997Y-111335398D01*
X130603288Y-111355756D01*
X130404507Y-111416055D01*
X130221313Y-111513974D01*
X130221313Y-111513975D01*
X130060747Y-111645747D01*
X129928975Y-111806313D01*
X129928974Y-111806313D01*
X129892851Y-111873896D01*
X129843099Y-111924544D01*
X129781729Y-111940500D01*
X128337570Y-111940500D01*
X128337554Y-111940499D01*
X128329836Y-111940499D01*
X128210164Y-111940499D01*
X128118997Y-111964927D01*
X128104892Y-111968706D01*
X128094567Y-111971473D01*
X127990933Y-112031306D01*
X127990928Y-112031310D01*
X127948619Y-112073620D01*
X127906309Y-112115930D01*
X127906307Y-112115932D01*
X124815932Y-115206307D01*
X124815930Y-115206309D01*
X124773620Y-115248619D01*
X124731310Y-115290928D01*
X124731306Y-115290933D01*
X124671474Y-115394567D01*
X124671473Y-115394570D01*
X124640499Y-115510160D01*
X124640499Y-115639986D01*
X124640500Y-115639999D01*
X124640500Y-116446728D01*
X124620498Y-116514849D01*
X124573898Y-116557849D01*
X124506313Y-116593974D01*
X124506313Y-116593975D01*
X124345747Y-116725747D01*
X124213975Y-116886313D01*
X124213974Y-116886313D01*
X124116055Y-117069507D01*
X124055756Y-117268288D01*
X124035398Y-117474996D01*
X124035398Y-117475003D01*
X124055756Y-117681711D01*
X124078002Y-117755046D01*
X124078635Y-117826040D01*
X124046522Y-117880716D01*
X123473295Y-118453944D01*
X122910932Y-119016307D01*
X122910930Y-119016309D01*
X122868620Y-119058619D01*
X122826310Y-119100928D01*
X122826306Y-119100933D01*
X122766474Y-119204567D01*
X122766473Y-119204570D01*
X122735499Y-119320160D01*
X122735499Y-119449986D01*
X122735500Y-119449999D01*
X122735500Y-137727429D01*
X122735499Y-137727447D01*
X122735499Y-137735164D01*
X122735499Y-137854836D01*
X122738335Y-137865419D01*
X122758252Y-137939753D01*
X122766472Y-137970429D01*
X122826306Y-138074066D01*
X122826314Y-138074076D01*
X122918105Y-138165867D01*
X122918119Y-138165879D01*
X127143595Y-142391355D01*
X127177621Y-142453667D01*
X127180500Y-142480450D01*
X127180500Y-144834499D01*
X127160498Y-144902620D01*
X127106842Y-144949113D01*
X127054500Y-144960499D01*
X126940164Y-144960499D01*
X126878220Y-144977096D01*
X126824572Y-144991471D01*
X126824567Y-144991473D01*
X126780766Y-145016761D01*
X126780767Y-145016762D01*
X126720930Y-145051308D01*
X126720928Y-145051310D01*
X126678619Y-145093620D01*
X126636309Y-145135930D01*
X126636307Y-145135932D01*
X126085932Y-145686307D01*
X126085930Y-145686309D01*
X126043620Y-145728619D01*
X126001310Y-145770928D01*
X126001306Y-145770933D01*
X125941474Y-145874567D01*
X125941473Y-145874570D01*
X125910499Y-145990160D01*
X125910499Y-146119986D01*
X125910500Y-146119999D01*
X125910500Y-148591000D01*
X125890498Y-148659121D01*
X125836842Y-148705614D01*
X125784500Y-148717000D01*
X121539000Y-148717000D01*
X121539000Y-149150500D01*
X121518998Y-149218621D01*
X121465342Y-149265114D01*
X121413000Y-149276500D01*
X111961500Y-149276500D01*
X111893379Y-149256498D01*
X111846886Y-149202842D01*
X111835500Y-149150500D01*
X111835500Y-99261500D01*
X111855502Y-99193379D01*
X111909158Y-99146886D01*
X111961500Y-99135500D01*
X122570018Y-99135500D01*
X122597767Y-99124006D01*
X122619006Y-99102767D01*
X122630500Y-99075018D01*
X122630500Y-95959500D01*
X122650502Y-95891379D01*
X122704158Y-95844886D01*
X122756500Y-95833500D01*
X177598500Y-95833500D01*
X177666621Y-95853502D01*
G37*
%TD.AperFunction*%
%TA.AperFunction,Conductor*%
G36*
X134800604Y-127831104D02*
G01*
X134855351Y-127876307D01*
X134871578Y-127910353D01*
X134885146Y-127955080D01*
X134911055Y-128040493D01*
X135008974Y-128223686D01*
X135140747Y-128384252D01*
X135301313Y-128516024D01*
X135301316Y-128516026D01*
X135301317Y-128516027D01*
X135443896Y-128592237D01*
X135494544Y-128641987D01*
X135510500Y-128703358D01*
X135510500Y-134632303D01*
X135510499Y-134632321D01*
X135510499Y-134739962D01*
X135518720Y-134770641D01*
X135518720Y-134770644D01*
X135536359Y-134836474D01*
X135536364Y-134836486D01*
X135586321Y-134923015D01*
X135586329Y-134923025D01*
X135664156Y-135000852D01*
X135664170Y-135000864D01*
X136108595Y-135445289D01*
X136142621Y-135507601D01*
X136145500Y-135534384D01*
X136145500Y-137335936D01*
X136125498Y-137404057D01*
X136119463Y-137412639D01*
X136040649Y-137515352D01*
X136040646Y-137515355D01*
X136040645Y-137515358D01*
X136024411Y-137554550D01*
X135984771Y-137650247D01*
X135965715Y-137794996D01*
X135965715Y-137794999D01*
X135984771Y-137939752D01*
X136040644Y-138074641D01*
X136040649Y-138074649D01*
X136129525Y-138190474D01*
X136245350Y-138279350D01*
X136245357Y-138279355D01*
X136380246Y-138335228D01*
X136525000Y-138354285D01*
X136669754Y-138335228D01*
X136804643Y-138279355D01*
X136920474Y-138190474D01*
X137009355Y-138074643D01*
X137065228Y-137939754D01*
X137084285Y-137795000D01*
X137084285Y-137794999D01*
X137084285Y-137794996D01*
X137065228Y-137650247D01*
X137065228Y-137650246D01*
X137009355Y-137515358D01*
X136987666Y-137487092D01*
X136930537Y-137412639D01*
X136904937Y-137346419D01*
X136904500Y-137335936D01*
X136904500Y-135385125D01*
X136904501Y-135385112D01*
X136904501Y-135275039D01*
X136899132Y-135255000D01*
X136878639Y-135178519D01*
X136874175Y-135170788D01*
X136857523Y-135141945D01*
X136857522Y-135141944D01*
X136828676Y-135091981D01*
X136828670Y-135091974D01*
X136753630Y-135016934D01*
X136753607Y-135016913D01*
X136306405Y-134569711D01*
X136272379Y-134507399D01*
X136269500Y-134480616D01*
X136269500Y-128703358D01*
X136289502Y-128635237D01*
X136336102Y-128592237D01*
X136478683Y-128516027D01*
X136574566Y-128437337D01*
X136639914Y-128409584D01*
X136709892Y-128421566D01*
X136762284Y-128469478D01*
X136780500Y-128534737D01*
X136780500Y-132022303D01*
X136780499Y-132022321D01*
X136780499Y-132129965D01*
X136799343Y-132200288D01*
X136800896Y-132206084D01*
X136803629Y-132216283D01*
X136806361Y-132226480D01*
X136856321Y-132313015D01*
X136856329Y-132313025D01*
X136934156Y-132390852D01*
X136934170Y-132390864D01*
X137378595Y-132835289D01*
X137412621Y-132897601D01*
X137415500Y-132924384D01*
X137415500Y-146860936D01*
X137395498Y-146929057D01*
X137389463Y-146937639D01*
X137310649Y-147040352D01*
X137310646Y-147040355D01*
X137310645Y-147040358D01*
X137282708Y-147107802D01*
X137254771Y-147175247D01*
X137235715Y-147319999D01*
X137235715Y-147320000D01*
X137254771Y-147464752D01*
X137310644Y-147599641D01*
X137310649Y-147599649D01*
X137399525Y-147715474D01*
X137515350Y-147804350D01*
X137515357Y-147804355D01*
X137650246Y-147860228D01*
X137795000Y-147879285D01*
X137939754Y-147860228D01*
X138074643Y-147804355D01*
X138190474Y-147715474D01*
X138279355Y-147599643D01*
X138335228Y-147464754D01*
X138354285Y-147320000D01*
X138335228Y-147175246D01*
X138279355Y-147040358D01*
X138257666Y-147012092D01*
X138200537Y-146937639D01*
X138174937Y-146871419D01*
X138174500Y-146860936D01*
X138174500Y-132775125D01*
X138174501Y-132775112D01*
X138174501Y-132665039D01*
X138167226Y-132637888D01*
X138148639Y-132568519D01*
X138114831Y-132509962D01*
X138098676Y-132481981D01*
X138098674Y-132481979D01*
X138098670Y-132481974D01*
X138023630Y-132406934D01*
X138023607Y-132406913D01*
X137576405Y-131959711D01*
X137542379Y-131897399D01*
X137539500Y-131870616D01*
X137539500Y-128534737D01*
X137559502Y-128466616D01*
X137613158Y-128420123D01*
X137683432Y-128410019D01*
X137745433Y-128437337D01*
X137841317Y-128516027D01*
X138024508Y-128613945D01*
X138223282Y-128674242D01*
X138223286Y-128674242D01*
X138223288Y-128674243D01*
X138429997Y-128694602D01*
X138430000Y-128694602D01*
X138430003Y-128694602D01*
X138636711Y-128674243D01*
X138636712Y-128674242D01*
X138636718Y-128674242D01*
X138835492Y-128613945D01*
X139018683Y-128516027D01*
X139114566Y-128437337D01*
X139179914Y-128409584D01*
X139249892Y-128421566D01*
X139302284Y-128469478D01*
X139320500Y-128534737D01*
X139320500Y-132505614D01*
X139300498Y-132573735D01*
X139283595Y-132594709D01*
X138831990Y-133046313D01*
X138831983Y-133046321D01*
X138831983Y-133046322D01*
X138831981Y-133046324D01*
X138807949Y-133070356D01*
X138761325Y-133116979D01*
X138761321Y-133116984D01*
X138711362Y-133203516D01*
X138711363Y-133203516D01*
X138711362Y-133203520D01*
X138685499Y-133300036D01*
X138685499Y-133410112D01*
X138685500Y-133410125D01*
X138685500Y-148591000D01*
X138665498Y-148659121D01*
X138611842Y-148705614D01*
X138559500Y-148717000D01*
X137030500Y-148717000D01*
X136962379Y-148696998D01*
X136915886Y-148643342D01*
X136904500Y-148591000D01*
X136904500Y-140395125D01*
X136904501Y-140395112D01*
X136904501Y-140285039D01*
X136904501Y-140285038D01*
X136878639Y-140188519D01*
X136842700Y-140126272D01*
X136828676Y-140101981D01*
X136828674Y-140101979D01*
X136828672Y-140101976D01*
X136753630Y-140026934D01*
X136753607Y-140026913D01*
X134316405Y-137589711D01*
X134282379Y-137527399D01*
X134279500Y-137500616D01*
X134279500Y-132060125D01*
X134279501Y-132060112D01*
X134279501Y-131950038D01*
X134279500Y-131950036D01*
X134275074Y-131933520D01*
X134253638Y-131853519D01*
X134253638Y-131853518D01*
X134203676Y-131766981D01*
X134203674Y-131766979D01*
X134203670Y-131766974D01*
X134128630Y-131691934D01*
X134128607Y-131691913D01*
X132496405Y-130059711D01*
X132462379Y-129997399D01*
X132459500Y-129970616D01*
X132459500Y-128850282D01*
X132479502Y-128782161D01*
X132533158Y-128735668D01*
X132603432Y-128725564D01*
X132657771Y-128747069D01*
X132693501Y-128772087D01*
X132900926Y-128868811D01*
X132900931Y-128868813D01*
X133096000Y-128921081D01*
X133096000Y-127946686D01*
X133104394Y-127955080D01*
X133195606Y-128007741D01*
X133297339Y-128035000D01*
X133402661Y-128035000D01*
X133504394Y-128007741D01*
X133595606Y-127955080D01*
X133604000Y-127946686D01*
X133604000Y-128921081D01*
X133799068Y-128868813D01*
X133799073Y-128868811D01*
X134006498Y-128772087D01*
X134193974Y-128640815D01*
X134193980Y-128640810D01*
X134355810Y-128478980D01*
X134355815Y-128478974D01*
X134487087Y-128291498D01*
X134583811Y-128084073D01*
X134583813Y-128084069D01*
X134629297Y-127914320D01*
X134666249Y-127853697D01*
X134730109Y-127822676D01*
X134800604Y-127831104D01*
G37*
%TD.AperFunction*%
%TA.AperFunction,Conductor*%
G36*
X131642621Y-127401002D02*
G01*
X131689114Y-127454658D01*
X131700500Y-127507000D01*
X131700500Y-127763000D01*
X131680498Y-127831121D01*
X131626842Y-127877614D01*
X131574500Y-127889000D01*
X131121686Y-127889000D01*
X131130080Y-127880606D01*
X131182741Y-127789394D01*
X131210000Y-127687661D01*
X131210000Y-127582339D01*
X131182741Y-127480606D01*
X131130080Y-127389394D01*
X131121686Y-127381000D01*
X131574500Y-127381000D01*
X131642621Y-127401002D01*
G37*
%TD.AperFunction*%
%TA.AperFunction,Conductor*%
G36*
X133029920Y-127389394D02*
G01*
X132977259Y-127480606D01*
X132950000Y-127582339D01*
X132950000Y-127687661D01*
X132977259Y-127789394D01*
X133029920Y-127880606D01*
X133038314Y-127889000D01*
X132585500Y-127889000D01*
X132517379Y-127868998D01*
X132470886Y-127815342D01*
X132459500Y-127763000D01*
X132459500Y-127507000D01*
X132479502Y-127438879D01*
X132533158Y-127392386D01*
X132585500Y-127381000D01*
X133038314Y-127381000D01*
X133029920Y-127389394D01*
G37*
%TD.AperFunction*%
%TD*%
M02*
