M48
; DRILL file {KiCad 8.0.3+1} date 2024-07-19T20:16:04+0200
; FORMAT={-:-/ absolute / inch / decimal}
; #@! TF.CreationDate,2024-07-19T20:16:04+02:00
; #@! TF.GenerationSoftware,Kicad,Pcbnew,8.0.3+1
; #@! TF.FileFunction,Plated,1,2,PTH
FMAT,2
INCH
; #@! TA.AperFunction,Plated,PTH,ViaDrill
T1C0.0157
; #@! TA.AperFunction,Plated,PTH,ComponentDrill
T2C0.0315
%
G90
G05
T1
X5.3Y-4.7
X5.375Y-5.425
X5.4Y-4.725
X5.425Y-5.8
X5.45Y-4.825
X5.5Y-4.75
X5.525Y-5.8
X5.6Y-4.775
X5.625Y-5.35
X5.625Y-5.8
X5.675Y-5.325
X5.7Y-5.1063
X5.725Y-5.3
X5.725Y-5.8
X5.825Y-5.8
X5.925Y-5.8
X6.025Y-5.8
X6.125Y-5.375
X6.125Y-5.8
X6.2Y-5.275
X6.225Y-5.4
X6.225Y-5.8
X6.25Y-4.7
X6.275Y-5.25
X6.3Y-4.825
X6.325Y-5.225
X6.325Y-5.8
X6.35Y-4.725
X6.375Y-5.375
X6.4Y-4.6
X6.425Y-5.8
X6.45Y-4.75
X6.5Y-4.65
X6.5Y-5.375
X6.55Y-4.775
X6.6Y-4.325
X6.65Y-4.8
T2
X4.925Y-4.625
X4.925Y-4.8219
X5.15Y-4.425
X5.15Y-5.025
X5.25Y-4.425
X5.25Y-5.025
X5.35Y-4.425
X5.35Y-5.025
X5.45Y-4.425
X5.45Y-5.025
X5.55Y-4.425
X5.55Y-5.025
X5.65Y-4.425
X5.65Y-5.025
X5.75Y-4.425
X5.75Y-5.025
X5.85Y-4.425
X5.85Y-5.025
X5.95Y-4.425
X5.95Y-5.025
X6.05Y-4.425
X6.05Y-5.025
X6.15Y-4.425
X6.15Y-5.025
X6.25Y-4.425
X6.25Y-5.025
X6.35Y-4.425
X6.35Y-5.025
X6.45Y-4.425
X6.45Y-5.025
X6.55Y-4.425
X6.55Y-5.025
X6.65Y-4.425
X6.65Y-5.025
M30
