%TF.GenerationSoftware,KiCad,Pcbnew,8.0.3+1*%
%TF.CreationDate,2024-07-19T21:35:54+02:00*%
%TF.ProjectId,rom64k,726f6d36-346b-42e6-9b69-6361645f7063,rev?*%
%TF.SameCoordinates,Original*%
%TF.FileFunction,Soldermask,Top*%
%TF.FilePolarity,Negative*%
%FSLAX46Y46*%
G04 Gerber Fmt 4.6, Leading zero omitted, Abs format (unit mm)*
G04 Created by KiCad (PCBNEW 8.0.3+1) date 2024-07-19 21:35:54*
%MOMM*%
%LPD*%
G01*
G04 APERTURE LIST*
G04 Aperture macros list*
%AMRoundRect*
0 Rectangle with rounded corners*
0 $1 Rounding radius*
0 $2 $3 $4 $5 $6 $7 $8 $9 X,Y pos of 4 corners*
0 Add a 4 corners polygon primitive as box body*
4,1,4,$2,$3,$4,$5,$6,$7,$8,$9,$2,$3,0*
0 Add four circle primitives for the rounded corners*
1,1,$1+$1,$2,$3*
1,1,$1+$1,$4,$5*
1,1,$1+$1,$6,$7*
1,1,$1+$1,$8,$9*
0 Add four rect primitives between the rounded corners*
20,1,$1+$1,$2,$3,$4,$5,0*
20,1,$1+$1,$4,$5,$6,$7,0*
20,1,$1+$1,$6,$7,$8,$9,0*
20,1,$1+$1,$8,$9,$2,$3,0*%
G04 Aperture macros list end*
%ADD10C,0.100000*%
%ADD11RoundRect,0.200000X0.800000X-0.800000X0.800000X0.800000X-0.800000X0.800000X-0.800000X-0.800000X0*%
%ADD12O,2.000000X2.000000*%
%ADD13RoundRect,0.200000X-0.750000X-5.500000X0.750000X-5.500000X0.750000X5.500000X-0.750000X5.500000X0*%
%ADD14C,2.000000*%
G04 APERTURE END LIST*
D10*
X121500000Y-149400000D02*
X187100000Y-149400000D01*
X187100000Y-161000000D01*
X121500000Y-161000000D01*
X121500000Y-149400000D01*
G36*
X121500000Y-149400000D02*
G01*
X187100000Y-149400000D01*
X187100000Y-161000000D01*
X121500000Y-161000000D01*
X121500000Y-149400000D01*
G37*
D11*
%TO.C,U2*%
X130810000Y-127635000D03*
D12*
X133350000Y-127635000D03*
X135890000Y-127635000D03*
X138430000Y-127635000D03*
X140970000Y-127635000D03*
X143510000Y-127635000D03*
X146050000Y-127635000D03*
X148590000Y-127635000D03*
X151130000Y-127635000D03*
X153670000Y-127635000D03*
X156210000Y-127635000D03*
X158750000Y-127635000D03*
X161290000Y-127635000D03*
X163830000Y-127635000D03*
X166370000Y-127635000D03*
X168910000Y-127635000D03*
X168910000Y-112395000D03*
X166370000Y-112395000D03*
X163830000Y-112395000D03*
X161290000Y-112395000D03*
X158750000Y-112395000D03*
X156210000Y-112395000D03*
X153670000Y-112395000D03*
X151130000Y-112395000D03*
X148590000Y-112395000D03*
X146050000Y-112395000D03*
X143510000Y-112395000D03*
X140970000Y-112395000D03*
X138430000Y-112395000D03*
X135890000Y-112395000D03*
X133350000Y-112395000D03*
X130810000Y-112395000D03*
%TD*%
D13*
%TO.C,P1*%
X123825000Y-154813000D03*
X126365000Y-154813000D03*
X128905000Y-154813000D03*
X131445000Y-154813000D03*
X133985000Y-154813000D03*
X136525000Y-154813000D03*
X139065000Y-154813000D03*
X141605000Y-154813000D03*
X144145000Y-154813000D03*
X146685000Y-154813000D03*
X149225000Y-154813000D03*
X151765000Y-154813000D03*
X154305000Y-154813000D03*
X156845000Y-154813000D03*
X159385000Y-154813000D03*
X161925000Y-154813000D03*
X164465000Y-154813000D03*
X167005000Y-154813000D03*
X169545000Y-154813000D03*
X172085000Y-154813000D03*
X174625000Y-154813000D03*
X177165000Y-154813000D03*
X179705000Y-154813000D03*
X182245000Y-154813000D03*
X184785000Y-154813000D03*
%TD*%
D14*
%TO.C,C1*%
X125095000Y-117475000D03*
X125095000Y-122475000D03*
%TD*%
M02*
